<?xml version="1.0" encoding="UTF-8" standalone="no"?>
<!DOCTYPE svg PUBLIC "-//W3C//DTD SVG 1.1//EN"
 "http://www.w3.org/Graphics/SVG/1.1/DTD/svg11.dtd">
<!-- Generated by graphviz version 2.36.0 (20140111.2315)
 -->
<!-- Title: G Pages: 1 -->
<svg width="1956pt" height="1099pt"
 viewBox="0.00 0.00 1956.00 1098.88" xmlns="http://www.w3.org/2000/svg" xmlns:xlink="http://www.w3.org/1999/xlink">
<g id="graph0" class="graph" transform="scale(1 1) rotate(0) translate(4 1094.88)">
<title>G</title>
<polygon fill="white" stroke="none" points="-4,4 -4,-1094.88 1952,-1094.88 1952,4 -4,4"/>
<!-- add&#45;constraint -->
<g id="node1" class="node"><title>add&#45;constraint</title>
<ellipse fill="#eeeeee" stroke="#eeeeee" cx="930" cy="-1014" rx="64.8797" ry="18"/>
<text text-anchor="middle" x="930" y="-1010.9" font-family="Verdana" font-size="12.00">add&#45;constraint</text>
</g>
<!-- update&#45;method&#45;graph -->
<g id="node2" class="node"><title>update&#45;method&#45;graph</title>
<ellipse fill="#eeeeee" stroke="#eeeeee" cx="677" cy="-827" rx="92.4307" ry="18"/>
<text text-anchor="middle" x="677" y="-823.9" font-family="Verdana" font-size="12.00">update&#45;method&#45;graph</text>
</g>
<!-- add&#45;constraint&#45;&gt;update&#45;method&#45;graph -->
<g id="edge1" class="edge"><title>add&#45;constraint&#45;&gt;update&#45;method&#45;graph</title>
<path fill="none" stroke="#31cef0" d="M907.99,-996.906C862.893,-963.93 759.887,-888.609 708.033,-850.692"/>
<polygon fill="#31cef0" stroke="#31cef0" points="710.005,-847.798 699.867,-844.721 705.873,-853.449 710.005,-847.798"/>
</g>
<!-- exec&#45;from&#45;roots -->
<g id="node3" class="node"><title>exec&#45;from&#45;roots</title>
<ellipse fill="#eeeeee" stroke="#eeeeee" cx="990" cy="-639" rx="70.2656" ry="18"/>
<text text-anchor="middle" x="990" y="-635.9" font-family="Verdana" font-size="12.00">exec&#45;from&#45;roots</text>
</g>
<!-- add&#45;constraint&#45;&gt;exec&#45;from&#45;roots -->
<g id="edge2" class="edge"><title>add&#45;constraint&#45;&gt;exec&#45;from&#45;roots</title>
<path fill="none" stroke="#31cef0" d="M932.734,-996.004C942.241,-936.9 973.918,-739.978 985.613,-667.275"/>
<polygon fill="#31cef0" stroke="#31cef0" points="989.117,-667.525 987.25,-657.096 982.206,-666.413 989.117,-667.525"/>
</g>
<!-- propagate&#45;walk&#45;strength -->
<g id="node5" class="node"><title>propagate&#45;walk&#45;strength</title>
<ellipse fill="#eeeeee" stroke="#eeeeee" cx="798" cy="-639" rx="104.051" ry="18"/>
<text text-anchor="middle" x="798" y="-635.9" font-family="Verdana" font-size="12.00">propagate&#45;walk&#45;strength</text>
</g>
<!-- update&#45;method&#45;graph&#45;&gt;propagate&#45;walk&#45;strength -->
<g id="edge8" class="edge"><title>update&#45;method&#45;graph&#45;&gt;propagate&#45;walk&#45;strength</title>
<path fill="none" stroke="#31cef0" d="M688.167,-808.835C709.507,-776.031 756.185,-704.277 781.268,-665.72"/>
<polygon fill="#31cef0" stroke="#31cef0" points="784.341,-667.415 786.86,-657.124 778.474,-663.597 784.341,-667.415"/>
</g>
<!-- collect&#45;unenforced -->
<g id="node6" class="node"><title>collect&#45;unenforced</title>
<ellipse fill="#eeeeee" stroke="#eeeeee" cx="467" cy="-639" rx="79.1164" ry="18"/>
<text text-anchor="middle" x="467" y="-635.9" font-family="Verdana" font-size="12.00">collect&#45;unenforced</text>
</g>
<!-- update&#45;method&#45;graph&#45;&gt;collect&#45;unenforced -->
<g id="edge9" class="edge"><title>update&#45;method&#45;graph&#45;&gt;collect&#45;unenforced</title>
<path fill="none" stroke="#31cef0" d="M657.994,-809.166C620.355,-775.828 536.27,-701.354 493.331,-663.321"/>
<polygon fill="#31cef0" stroke="#31cef0" points="495.619,-660.673 485.812,-656.662 490.978,-665.913 495.619,-660.673"/>
</g>
<!-- build&#45;mvine -->
<g id="node7" class="node"><title>build&#45;mvine</title>
<ellipse fill="#eeeeee" stroke="#eeeeee" cx="315" cy="-639" rx="54.1832" ry="18"/>
<text text-anchor="middle" x="315" y="-635.9" font-family="Verdana" font-size="12.00">build&#45;mvine</text>
</g>
<!-- update&#45;method&#45;graph&#45;&gt;build&#45;mvine -->
<g id="edge7" class="edge"><title>update&#45;method&#45;graph&#45;&gt;build&#45;mvine</title>
<path fill="none" stroke="#31cef0" d="M645.823,-809.981C579.35,-775.826 423.929,-695.969 352.328,-659.179"/>
<polygon fill="#31cef0" stroke="#31cef0" points="353.7,-655.95 343.206,-654.493 350.501,-662.176 353.7,-655.95"/>
</g>
<!-- new&#45;mark -->
<g id="node8" class="node"><title>new&#45;mark</title>
<ellipse fill="#eeeeee" stroke="#eeeeee" cx="620" cy="-452" rx="47.1009" ry="18"/>
<text text-anchor="middle" x="620" y="-448.9" font-family="Verdana" font-size="12.00">new&#45;mark</text>
</g>
<!-- exec&#45;from&#45;roots&#45;&gt;new&#45;mark -->
<g id="edge24" class="edge"><title>exec&#45;from&#45;roots&#45;&gt;new&#45;mark</title>
<path fill="none" stroke="#31cef0" d="M959.407,-622.703C891.801,-588.901 729.91,-507.955 656.864,-471.432"/>
<polygon fill="#31cef0" stroke="#31cef0" points="658.088,-468.131 647.579,-466.789 654.958,-474.392 658.088,-468.131"/>
</g>
<!-- pplan&#45;add -->
<g id="node13" class="node"><title>pplan&#45;add</title>
<ellipse fill="#eeeeee" stroke="#eeeeee" cx="733" cy="-452" rx="48.0237" ry="18"/>
<text text-anchor="middle" x="733" y="-448.9" font-family="Verdana" font-size="12.00">pplan&#45;add</text>
</g>
<!-- exec&#45;from&#45;roots&#45;&gt;pplan&#45;add -->
<g id="edge25" class="edge"><title>exec&#45;from&#45;roots&#45;&gt;pplan&#45;add</title>
<path fill="none" stroke="#31cef0" d="M967.643,-621.906C921.254,-588.514 814.546,-511.7 762.553,-474.274"/>
<polygon fill="#31cef0" stroke="#31cef0" points="764.559,-471.405 754.398,-468.403 760.47,-477.086 764.559,-471.405"/>
</g>
<!-- any&#45;immediate&#45;upstream&#45;cns&#45;marked -->
<g id="node14" class="node"><title>any&#45;immediate&#45;upstream&#45;cns&#45;marked</title>
<ellipse fill="#eeeeee" stroke="#eeeeee" cx="970" cy="-452" rx="152.498" ry="18"/>
<text text-anchor="middle" x="970" y="-448.9" font-family="Verdana" font-size="12.00">any&#45;immediate&#45;upstream&#45;cns&#45;marked</text>
</g>
<!-- exec&#45;from&#45;roots&#45;&gt;any&#45;immediate&#45;upstream&#45;cns&#45;marked -->
<g id="edge26" class="edge"><title>exec&#45;from&#45;roots&#45;&gt;any&#45;immediate&#45;upstream&#45;cns&#45;marked</title>
<path fill="none" stroke="#31cef0" d="M988.154,-620.927C984.672,-588.713 977.106,-518.732 972.925,-480.053"/>
<polygon fill="#31cef0" stroke="#31cef0" points="976.396,-479.597 971.841,-470.031 969.436,-480.35 976.396,-479.597"/>
</g>
<!-- exec&#45;from&#45;cycle -->
<g id="node17" class="node"><title>exec&#45;from&#45;cycle</title>
<ellipse fill="#eeeeee" stroke="#eeeeee" cx="1638" cy="-452" rx="69.3418" ry="18"/>
<text text-anchor="middle" x="1638" y="-448.9" font-family="Verdana" font-size="12.00">exec&#45;from&#45;cycle</text>
</g>
<!-- exec&#45;from&#45;roots&#45;&gt;exec&#45;from&#45;cycle -->
<g id="edge27" class="edge"><title>exec&#45;from&#45;roots&#45;&gt;exec&#45;from&#45;cycle</title>
<path fill="none" stroke="#31cef0" d="M1035.05,-625.138C1150.74,-592.109 1457.98,-504.395 1583.46,-468.571"/>
<polygon fill="#31cef0" stroke="#31cef0" points="1584.59,-471.888 1593.25,-465.777 1582.67,-465.157 1584.59,-471.888"/>
</g>
<!-- execute&#45;propagate&#45;valid -->
<g id="node18" class="node"><title>execute&#45;propagate&#45;valid</title>
<ellipse fill="#eeeeee" stroke="#eeeeee" cx="1846" cy="-452" rx="102.206" ry="18"/>
<text text-anchor="middle" x="1846" y="-448.9" font-family="Verdana" font-size="12.00">execute&#45;propagate&#45;valid</text>
</g>
<!-- exec&#45;from&#45;roots&#45;&gt;execute&#45;propagate&#45;valid -->
<g id="edge28" class="edge"><title>exec&#45;from&#45;roots&#45;&gt;execute&#45;propagate&#45;valid</title>
<path fill="none" stroke="#31cef0" d="M1041.94,-626.775C1188.45,-595.11 1605.3,-505.02 1773.91,-468.581"/>
<polygon fill="#31cef0" stroke="#31cef0" points="1774.89,-471.949 1783.93,-466.416 1773.41,-465.107 1774.89,-471.949"/>
</g>
<!-- remove&#45;constraint -->
<g id="node4" class="node"><title>remove&#45;constraint</title>
<ellipse fill="#eeeeee" stroke="#eeeeee" cx="707" cy="-1014" rx="78.1943" ry="18"/>
<text text-anchor="middle" x="707" y="-1010.9" font-family="Verdana" font-size="12.00">remove&#45;constraint</text>
</g>
<!-- remove&#45;constraint&#45;&gt;update&#45;method&#45;graph -->
<g id="edge5" class="edge"><title>remove&#45;constraint&#45;&gt;update&#45;method&#45;graph</title>
<path fill="none" stroke="#31cef0" d="M704.231,-995.927C699.007,-963.713 687.659,-893.732 681.387,-855.053"/>
<polygon fill="#31cef0" stroke="#31cef0" points="684.818,-854.342 679.762,-845.031 677.908,-855.463 684.818,-854.342"/>
</g>
<!-- remove&#45;constraint&#45;&gt;exec&#45;from&#45;roots -->
<g id="edge6" class="edge"><title>remove&#45;constraint&#45;&gt;exec&#45;from&#45;roots</title>
<path fill="none" stroke="#31cef0" d="M719.895,-996.004C765.199,-936.293 917.224,-735.92 970.975,-665.075"/>
<polygon fill="#31cef0" stroke="#31cef0" points="973.773,-667.178 977.029,-657.096 968.196,-662.947 973.773,-667.178"/>
</g>
<!-- remove&#45;constraint&#45;&gt;propagate&#45;walk&#45;strength -->
<g id="edge3" class="edge"><title>remove&#45;constraint&#45;&gt;propagate&#45;walk&#45;strength</title>
<path fill="none" stroke="#31cef0" d="M716.268,-995.95C731.929,-966.256 763.356,-902.7 778,-845 793.8,-782.745 797.274,-706.934 797.941,-667.235"/>
<polygon fill="#31cef0" stroke="#31cef0" points="801.443,-667.078 798.062,-657.037 794.443,-666.995 801.443,-667.078"/>
</g>
<!-- remove&#45;constraint&#45;&gt;collect&#45;unenforced -->
<g id="edge4" class="edge"><title>remove&#45;constraint&#45;&gt;collect&#45;unenforced</title>
<path fill="none" stroke="#31cef0" d="M692.04,-996.12C666.349,-966.684 612.949,-903.504 575,-845 535.243,-783.708 497.542,-706.21 478.988,-666.344"/>
<polygon fill="#31cef0" stroke="#31cef0" points="482.066,-664.662 474.693,-657.053 475.712,-667.599 482.066,-664.662"/>
</g>
<!-- propagate&#45;walk&#45;strength&#45;&gt;new&#45;mark -->
<g id="edge17" class="edge"><title>propagate&#45;walk&#45;strength&#45;&gt;new&#45;mark</title>
<path fill="none" stroke="#31cef0" d="M781.573,-620.927C749.674,-587.774 679.289,-514.621 642.854,-476.753"/>
<polygon fill="#31cef0" stroke="#31cef0" points="645.076,-474.015 635.621,-469.235 640.032,-478.868 645.076,-474.015"/>
</g>
<!-- propagate&#45;walk&#45;strength&#45;&gt;pplan&#45;add -->
<g id="edge18" class="edge"><title>propagate&#45;walk&#45;strength&#45;&gt;pplan&#45;add</title>
<path fill="none" stroke="#31cef0" d="M792.001,-620.927C780.634,-588.575 755.885,-518.133 742.332,-479.559"/>
<polygon fill="#31cef0" stroke="#31cef0" points="745.601,-478.306 738.984,-470.031 738.997,-480.626 745.601,-478.306"/>
</g>
<!-- propagate&#45;walk&#45;strength&#45;&gt;any&#45;immediate&#45;upstream&#45;cns&#45;marked -->
<g id="edge19" class="edge"><title>propagate&#45;walk&#45;strength&#45;&gt;any&#45;immediate&#45;upstream&#45;cns&#45;marked</title>
<path fill="none" stroke="#31cef0" d="M813.873,-620.927C844.464,-588.024 911.683,-515.724 947.112,-477.618"/>
<polygon fill="#31cef0" stroke="#31cef0" points="949.92,-479.738 954.165,-470.031 944.793,-474.972 949.92,-479.738"/>
</g>
<!-- compute&#45;walkabout&#45;strengths -->
<g id="node15" class="node"><title>compute&#45;walkabout&#45;strengths</title>
<ellipse fill="#eeeeee" stroke="#eeeeee" cx="1427" cy="-452" rx="123.599" ry="18"/>
<text text-anchor="middle" x="1427" y="-448.9" font-family="Verdana" font-size="12.00">compute&#45;walkabout&#45;strengths</text>
</g>
<!-- propagate&#45;walk&#45;strength&#45;&gt;compute&#45;walkabout&#45;strengths -->
<g id="edge20" class="edge"><title>propagate&#45;walk&#45;strength&#45;&gt;compute&#45;walkabout&#45;strengths</title>
<path fill="none" stroke="#31cef0" d="M848.41,-623.173C962.512,-589.614 1240.28,-507.916 1364.81,-471.291"/>
<polygon fill="#31cef0" stroke="#31cef0" points="1365.98,-474.596 1374.58,-468.416 1364,-467.88 1365.98,-474.596"/>
</g>
<!-- collect&#45;unenforced&#45;&gt;new&#45;mark -->
<g id="edge21" class="edge"><title>collect&#45;unenforced&#45;&gt;new&#45;mark</title>
<path fill="none" stroke="#31cef0" d="M480.848,-621.256C507.997,-588.428 568.315,-515.495 599.873,-477.336"/>
<polygon fill="#31cef0" stroke="#31cef0" points="602.837,-479.245 606.513,-469.308 597.443,-474.783 602.837,-479.245"/>
</g>
<!-- collect&#45;unenforced&#45;mark -->
<g id="node16" class="node"><title>collect&#45;unenforced&#45;mark</title>
<ellipse fill="#eeeeee" stroke="#eeeeee" cx="269" cy="-452" rx="100.435" ry="18"/>
<text text-anchor="middle" x="269" y="-448.9" font-family="Verdana" font-size="12.00">collect&#45;unenforced&#45;mark</text>
</g>
<!-- collect&#45;unenforced&#45;&gt;collect&#45;unenforced&#45;mark -->
<g id="edge22" class="edge"><title>collect&#45;unenforced&#45;&gt;collect&#45;unenforced&#45;mark</title>
<path fill="none" stroke="#31cef0" d="M449.08,-621.256C413.755,-588.25 335.04,-514.704 294.387,-476.72"/>
<polygon fill="#31cef0" stroke="#31cef0" points="296.719,-474.109 287.023,-469.839 291.94,-479.224 296.719,-474.109"/>
</g>
<!-- build&#45;mvine&#45;&gt;new&#45;mark -->
<g id="edge10" class="edge"><title>build&#45;mvine&#45;&gt;new&#45;mark</title>
<path fill="none" stroke="#31cef0" d="M339.959,-622.861C394.766,-589.617 525.63,-510.241 587.075,-472.971"/>
<polygon fill="#31cef0" stroke="#31cef0" points="589.235,-475.754 595.97,-467.576 585.604,-469.769 589.235,-475.754"/>
</g>
<!-- mvine&#45;enforce&#45;cn -->
<g id="node9" class="node"><title>mvine&#45;enforce&#45;cn</title>
<ellipse fill="#eeeeee" stroke="#eeeeee" cx="75" cy="-452" rx="75.1525" ry="18"/>
<text text-anchor="middle" x="75" y="-448.9" font-family="Verdana" font-size="12.00">mvine&#45;enforce&#45;cn</text>
</g>
<!-- build&#45;mvine&#45;&gt;mvine&#45;enforce&#45;cn -->
<g id="edge11" class="edge"><title>build&#45;mvine&#45;&gt;mvine&#45;enforce&#45;cn</title>
<path fill="none" stroke="#31cef0" d="M294.538,-622.227C251.996,-589.435 153.869,-513.794 104.499,-475.739"/>
<polygon fill="#31cef0" stroke="#31cef0" points="106.497,-472.86 96.4402,-469.527 102.224,-478.404 106.497,-472.86"/>
</g>
<!-- mvine&#45;grow -->
<g id="node10" class="node"><title>mvine&#45;grow</title>
<ellipse fill="#eeeeee" stroke="#eeeeee" cx="75" cy="-264" rx="54.2578" ry="18"/>
<text text-anchor="middle" x="75" y="-260.9" font-family="Verdana" font-size="12.00">mvine&#45;grow</text>
</g>
<!-- mvine&#45;enforce&#45;cn&#45;&gt;mvine&#45;grow -->
<g id="edge16" class="edge"><title>mvine&#45;enforce&#45;cn&#45;&gt;mvine&#45;grow</title>
<path fill="none" stroke="#31cef0" d="M70.8867,-433.835C67.672,-401.446 67.3968,-331.087 70.0614,-292.2"/>
<polygon fill="#31cef0" stroke="#31cef0" points="73.5585,-292.377 70.8908,-282.124 66.5821,-291.803 73.5585,-292.377"/>
</g>
<!-- mvine&#45;grow&#45;&gt;mvine&#45;enforce&#45;cn -->
<g id="edge14" class="edge"><title>mvine&#45;grow&#45;&gt;mvine&#45;enforce&#45;cn</title>
<path fill="none" stroke="#31cef0" d="M79.1092,-282.124C82.3264,-314.48 82.6041,-384.836 79.9421,-423.751"/>
<polygon fill="#31cef0" stroke="#31cef0" points="76.4442,-423.582 79.1133,-433.835 83.4207,-424.155 76.4442,-423.582"/>
</g>
<!-- mvine&#45;grow&#45;&gt;mvine&#45;grow -->
<g id="edge12" class="edge"><title>mvine&#45;grow&#45;&gt;mvine&#45;grow</title>
<path fill="none" stroke="#31cef0" d="M87.0384,-281.633C112.192,-309.475 147,-303.598 147,-264 147,-228.115 118.413,-219.923 94.3309,-239.425"/>
<polygon fill="#31cef0" stroke="#31cef0" points="91.8686,-236.937 87.0384,-246.367 96.6948,-242.007 91.8686,-236.937"/>
</g>
<!-- mvine&#45;revoke&#45;cn -->
<g id="node11" class="node"><title>mvine&#45;revoke&#45;cn</title>
<ellipse fill="#eeeeee" stroke="#eeeeee" cx="75" cy="-77" rx="72.4586" ry="18"/>
<text text-anchor="middle" x="75" y="-73.9" font-family="Verdana" font-size="12.00">mvine&#45;revoke&#45;cn</text>
</g>
<!-- mvine&#45;grow&#45;&gt;mvine&#45;revoke&#45;cn -->
<g id="edge13" class="edge"><title>mvine&#45;grow&#45;&gt;mvine&#45;revoke&#45;cn</title>
<path fill="none" stroke="#31cef0" d="M75,-245.927C75,-213.713 75,-143.732 75,-105.053"/>
<polygon fill="#31cef0" stroke="#31cef0" points="78.5001,-105.031 75,-95.0315 71.5001,-105.032 78.5001,-105.031"/>
</g>
<!-- mvine&#45;rekove&#45;cn -->
<g id="node12" class="node"><title>mvine&#45;rekove&#45;cn</title>
<ellipse fill="#eeeeee" stroke="#eeeeee" cx="1213" cy="-452" rx="72.4586" ry="18"/>
<text text-anchor="middle" x="1213" y="-448.9" font-family="Verdana" font-size="12.00">mvine&#45;rekove&#45;cn</text>
</g>
<!-- mvine&#45;rekove&#45;cn&#45;&gt;mvine&#45;grow -->
<g id="edge15" class="edge"><title>mvine&#45;rekove&#45;cn&#45;&gt;mvine&#45;grow</title>
<path fill="none" stroke="#31cef0" d="M1160.14,-439.67C1150.46,-437.702 1140.44,-435.733 1131,-434 752.175,-364.456 293.887,-296.647 133.671,-273.427"/>
<polygon fill="#31cef0" stroke="#31cef0" points="133.951,-269.931 123.553,-271.963 132.948,-276.859 133.951,-269.931"/>
</g>
<!-- pplan&#45;add&#45;&gt;pplan&#45;add -->
<g id="edge31" class="edge"><title>pplan&#45;add&#45;&gt;pplan&#45;add</title>
<path fill="none" stroke="#31cef0" d="M744.035,-469.633C767.093,-497.475 799,-491.598 799,-452 799,-416.269 773.021,-407.994 751.006,-427.175"/>
<polygon fill="#31cef0" stroke="#31cef0" points="748.481,-424.75 744.035,-434.367 753.508,-429.622 748.481,-424.75"/>
</g>
<!-- collect&#45;unenforced&#45;mark&#45;&gt;collect&#45;unenforced&#45;mark -->
<g id="edge23" class="edge"><title>collect&#45;unenforced&#45;mark&#45;&gt;collect&#45;unenforced&#45;mark</title>
<path fill="none" stroke="#31cef0" d="M289.014,-469.824C330.216,-497.448 387,-491.507 387,-452 387,-415.194 337.714,-407.521 297.659,-428.981"/>
<polygon fill="#31cef0" stroke="#31cef0" points="295.783,-426.025 289.014,-434.176 299.388,-432.025 295.783,-426.025"/>
</g>
<!-- exec&#45;from&#45;cycle&#45;&gt;exec&#45;from&#45;cycle -->
<g id="edge30" class="edge"><title>exec&#45;from&#45;cycle&#45;&gt;exec&#45;from&#45;cycle</title>
<path fill="none" stroke="#31cef0" d="M1652.55,-469.633C1682.94,-497.475 1725,-491.598 1725,-452 1725,-415.805 1689.86,-407.784 1660.61,-427.936"/>
<polygon fill="#31cef0" stroke="#31cef0" points="1658.18,-425.394 1652.55,-434.367 1662.55,-430.866 1658.18,-425.394"/>
</g>
<!-- execute&#45;method -->
<g id="node19" class="node"><title>execute&#45;method</title>
<ellipse fill="#eeeeee" stroke="#eeeeee" cx="1846" cy="-264" rx="71.1125" ry="18"/>
<text text-anchor="middle" x="1846" y="-260.9" font-family="Verdana" font-size="12.00">execute&#45;method</text>
</g>
<!-- execute&#45;propagate&#45;valid&#45;&gt;execute&#45;method -->
<g id="edge29" class="edge"><title>execute&#45;propagate&#45;valid&#45;&gt;execute&#45;method</title>
<path fill="none" stroke="#31cef0" d="M1846,-433.835C1846,-401.446 1846,-331.087 1846,-292.2"/>
<polygon fill="#31cef0" stroke="#31cef0" points="1849.5,-292.124 1846,-282.124 1842.5,-292.124 1849.5,-292.124"/>
</g>
<!-- extract&#45;plan -->
<g id="node20" class="node"><title>extract&#45;plan</title>
<ellipse fill="#eeeeee" stroke="#eeeeee" cx="620" cy="-639" rx="56.0276" ry="18"/>
<text text-anchor="middle" x="620" y="-635.9" font-family="Verdana" font-size="12.00">extract&#45;plan</text>
</g>
<!-- extract&#45;plan&#45;&gt;new&#45;mark -->
<g id="edge32" class="edge"><title>extract&#45;plan&#45;&gt;new&#45;mark</title>
<path fill="none" stroke="#31cef0" d="M620,-620.927C620,-588.713 620,-518.732 620,-480.053"/>
<polygon fill="#31cef0" stroke="#31cef0" points="623.5,-480.031 620,-470.031 616.5,-480.032 623.5,-480.031"/>
</g>
<!-- extract&#45;plan&#45;&gt;pplan&#45;add -->
<g id="edge33" class="edge"><title>extract&#45;plan&#45;&gt;pplan&#45;add</title>
<path fill="none" stroke="#31cef0" d="M630.227,-621.256C650.094,-588.731 694.008,-516.836 717.485,-478.401"/>
<polygon fill="#31cef0" stroke="#31cef0" points="720.489,-480.198 722.714,-469.839 714.515,-476.549 720.489,-480.198"/>
</g>
<!-- extract&#45;plan&#45;&gt;any&#45;immediate&#45;upstream&#45;cns&#45;marked -->
<g id="edge34" class="edge"><title>extract&#45;plan&#45;&gt;any&#45;immediate&#45;upstream&#45;cns&#45;marked</title>
<path fill="none" stroke="#31cef0" d="M647.756,-623.329C709.264,-590.817 857.269,-512.587 929.278,-474.524"/>
<polygon fill="#31cef0" stroke="#31cef0" points="931.298,-477.416 938.503,-469.648 928.026,-471.227 931.298,-477.416"/>
</g>
<!-- create&#45;valid&#45;plan -->
<g id="node21" class="node"><title>create&#45;valid&#45;plan</title>
<ellipse fill="#eeeeee" stroke="#eeeeee" cx="480" cy="-452" rx="74.2291" ry="18"/>
<text text-anchor="middle" x="480" y="-448.9" font-family="Verdana" font-size="12.00">create&#45;valid&#45;plan</text>
</g>
<!-- extract&#45;plan&#45;&gt;create&#45;valid&#45;plan -->
<g id="edge35" class="edge"><title>extract&#45;plan&#45;&gt;create&#45;valid&#45;plan</title>
<path fill="none" stroke="#31cef0" d="M607.329,-621.256C582.611,-588.594 527.848,-516.228 498.855,-477.916"/>
<polygon fill="#31cef0" stroke="#31cef0" points="501.569,-475.701 492.743,-469.839 495.987,-479.925 501.569,-475.701"/>
</g>
<!-- execute&#45;plan -->
<g id="node22" class="node"><title>execute&#45;plan</title>
<ellipse fill="#eeeeee" stroke="#eeeeee" cx="1846" cy="-639" rx="59.1446" ry="18"/>
<text text-anchor="middle" x="1846" y="-635.9" font-family="Verdana" font-size="12.00">execute&#45;plan</text>
</g>
<!-- execute&#45;plan&#45;&gt;execute&#45;propagate&#45;valid -->
<g id="edge36" class="edge"><title>execute&#45;plan&#45;&gt;execute&#45;propagate&#45;valid</title>
<path fill="none" stroke="#31cef0" d="M1846,-620.927C1846,-588.713 1846,-518.732 1846,-480.053"/>
<polygon fill="#31cef0" stroke="#31cef0" points="1849.5,-480.031 1846,-470.031 1842.5,-480.032 1849.5,-480.031"/>
</g>
</g>
</svg>
