<?xml version="1.0" encoding="UTF-8" standalone="no"?>
<!DOCTYPE svg PUBLIC "-//W3C//DTD SVG 1.1//EN"
 "http://www.w3.org/Graphics/SVG/1.1/DTD/svg11.dtd">
<!-- Generated by graphviz version 2.36.0 (20140111.2315)
 -->
<!-- Title: G Pages: 1 -->
<svg width="1794pt" height="1008pt"
 viewBox="0.00 0.00 1794.00 1008.16" xmlns="http://www.w3.org/2000/svg" xmlns:xlink="http://www.w3.org/1999/xlink">
<g id="graph0" class="graph" transform="scale(1 1) rotate(0) translate(4 1004.16)">
<title>G</title>
<polygon fill="white" stroke="none" points="-4,4 -4,-1004.16 1790,-1004.16 1790,4 -4,4"/>
<!-- add&#45;constraint -->
<g id="node1" class="node"><title>add&#45;constraint</title>
<ellipse fill="#73c764" stroke="#eeeeee" cx="941" cy="-930" rx="64.8797" ry="18"/>
<text text-anchor="middle" x="941" y="-926.9" font-family="Verdana" font-size="12.00">add&#45;constraint</text>
</g>
<!-- update&#45;method&#45;graph -->
<g id="node9" class="node"><title>update&#45;method&#45;graph</title>
<ellipse fill="#eeeeee" stroke="#eeeeee" cx="688" cy="-758" rx="92.4307" ry="18"/>
<text text-anchor="middle" x="688" y="-754.9" font-family="Verdana" font-size="12.00">update&#45;method&#45;graph</text>
</g>
<!-- add&#45;constraint&#45;&gt;update&#45;method&#45;graph -->
<g id="edge1" class="edge"><title>add&#45;constraint&#45;&gt;update&#45;method&#45;graph</title>
<path fill="none" stroke="#31cef0" d="M917.198,-913.007C871.848,-882.534 772.971,-816.095 721.166,-781.285"/>
<polygon fill="#31cef0" stroke="#31cef0" points="722.919,-778.247 712.667,-775.575 719.015,-784.057 722.919,-778.247"/>
</g>
<!-- exec&#45;from&#45;roots -->
<g id="node10" class="node"><title>exec&#45;from&#45;roots</title>
<ellipse fill="#eeeeee" stroke="#eeeeee" cx="1001" cy="-586" rx="70.2656" ry="18"/>
<text text-anchor="middle" x="1001" y="-582.9" font-family="Verdana" font-size="12.00">exec&#45;from&#45;roots</text>
</g>
<!-- add&#45;constraint&#45;&gt;exec&#45;from&#45;roots -->
<g id="edge2" class="edge"><title>add&#45;constraint&#45;&gt;exec&#45;from&#45;roots</title>
<path fill="none" stroke="#31cef0" d="M944.058,-911.57C953.83,-855.868 984.357,-681.868 996.219,-614.253"/>
<polygon fill="#31cef0" stroke="#31cef0" points="999.739,-614.443 998.019,-603.989 992.844,-613.234 999.739,-614.443"/>
</g>
<!-- remove&#45;constraint -->
<g id="node2" class="node"><title>remove&#45;constraint</title>
<ellipse fill="#73c764" stroke="#eeeeee" cx="718" cy="-930" rx="78.1943" ry="18"/>
<text text-anchor="middle" x="718" y="-926.9" font-family="Verdana" font-size="12.00">remove&#45;constraint</text>
</g>
<!-- remove&#45;constraint&#45;&gt;update&#45;method&#45;graph -->
<g id="edge5" class="edge"><title>remove&#45;constraint&#45;&gt;update&#45;method&#45;graph</title>
<path fill="none" stroke="#31cef0" d="M714.958,-911.764C709.734,-882.159 699.018,-821.433 692.785,-786.112"/>
<polygon fill="#31cef0" stroke="#31cef0" points="696.19,-785.268 691.005,-776.029 689.296,-786.485 696.19,-785.268"/>
</g>
<!-- remove&#45;constraint&#45;&gt;exec&#45;from&#45;roots -->
<g id="edge6" class="edge"><title>remove&#45;constraint&#45;&gt;exec&#45;from&#45;roots</title>
<path fill="none" stroke="#31cef0" d="M732.034,-912.04C778.346,-856.073 926.45,-677.092 980.775,-611.442"/>
<polygon fill="#31cef0" stroke="#31cef0" points="983.536,-613.595 987.215,-603.659 978.143,-609.132 983.536,-613.595"/>
</g>
<!-- propagate&#45;walk&#45;strength -->
<g id="node11" class="node"><title>propagate&#45;walk&#45;strength</title>
<ellipse fill="#eeeeee" stroke="#eeeeee" cx="809" cy="-586" rx="104.051" ry="18"/>
<text text-anchor="middle" x="809" y="-582.9" font-family="Verdana" font-size="12.00">propagate&#45;walk&#45;strength</text>
</g>
<!-- remove&#45;constraint&#45;&gt;propagate&#45;walk&#45;strength -->
<g id="edge3" class="edge"><title>remove&#45;constraint&#45;&gt;propagate&#45;walk&#45;strength</title>
<path fill="none" stroke="#31cef0" d="M728.28,-911.823C744.239,-884.251 774.631,-827.93 789,-776 804.537,-719.849 808.156,-651.244 808.906,-614.077"/>
<polygon fill="#31cef0" stroke="#31cef0" points="812.406,-614.082 809.053,-604.032 805.407,-613.979 812.406,-614.082"/>
</g>
<!-- collect&#45;unenforced -->
<g id="node12" class="node"><title>collect&#45;unenforced</title>
<ellipse fill="#eeeeee" stroke="#eeeeee" cx="478" cy="-586" rx="79.1164" ry="18"/>
<text text-anchor="middle" x="478" y="-582.9" font-family="Verdana" font-size="12.00">collect&#45;unenforced</text>
</g>
<!-- remove&#45;constraint&#45;&gt;collect&#45;unenforced -->
<g id="edge4" class="edge"><title>remove&#45;constraint&#45;&gt;collect&#45;unenforced</title>
<path fill="none" stroke="#31cef0" d="M701.393,-912.007C675.155,-884.686 623.269,-828.705 586,-776 547.042,-720.907 509.892,-650.728 490.978,-613.305"/>
<polygon fill="#31cef0" stroke="#31cef0" points="493.969,-611.46 486.356,-604.091 487.712,-614.599 493.969,-611.46"/>
</g>
<!-- new&#45;mark -->
<g id="node3" class="node"><title>new&#45;mark</title>
<ellipse fill="#73c764" stroke="#eeeeee" cx="453" cy="-414" rx="47.1009" ry="18"/>
<text text-anchor="middle" x="453" y="-410.9" font-family="Verdana" font-size="12.00">new&#45;mark</text>
</g>
<!-- build&#45;mvine -->
<g id="node4" class="node"><title>build&#45;mvine</title>
<ellipse fill="#73c764" stroke="#eeeeee" cx="326" cy="-586" rx="54.1832" ry="18"/>
<text text-anchor="middle" x="326" y="-582.9" font-family="Verdana" font-size="12.00">build&#45;mvine</text>
</g>
<!-- build&#45;mvine&#45;&gt;new&#45;mark -->
<g id="edge10" class="edge"><title>build&#45;mvine&#45;&gt;new&#45;mark</title>
<path fill="none" stroke="#31cef0" d="M338.409,-568.39C360.849,-538.352 408.278,-474.864 434.537,-439.715"/>
<polygon fill="#31cef0" stroke="#31cef0" points="437.547,-441.533 440.728,-431.427 431.939,-437.344 437.547,-441.533"/>
</g>
<!-- mvine&#45;enforce&#45;cn -->
<g id="node7" class="node"><title>mvine&#45;enforce&#45;cn</title>
<ellipse fill="#73c764" stroke="#eeeeee" cx="75" cy="-414" rx="75.1525" ry="18"/>
<text text-anchor="middle" x="75" y="-410.9" font-family="Verdana" font-size="12.00">mvine&#45;enforce&#45;cn</text>
</g>
<!-- build&#45;mvine&#45;&gt;mvine&#45;enforce&#45;cn -->
<g id="edge11" class="edge"><title>build&#45;mvine&#45;&gt;mvine&#45;enforce&#45;cn</title>
<path fill="none" stroke="#31cef0" d="M303.283,-569.614C258.565,-539.327 158.997,-471.891 107.4,-436.944"/>
<polygon fill="#31cef0" stroke="#31cef0" points="109.189,-433.928 98.9461,-431.218 105.263,-439.724 109.189,-433.928"/>
</g>
<!-- mvine&#45;grow -->
<g id="node5" class="node"><title>mvine&#45;grow</title>
<ellipse fill="#73c764" stroke="#eeeeee" cx="75" cy="-242" rx="54.2578" ry="18"/>
<text text-anchor="middle" x="75" y="-238.9" font-family="Verdana" font-size="12.00">mvine&#45;grow</text>
</g>
<!-- mvine&#45;grow&#45;&gt;mvine&#45;grow -->
<g id="edge12" class="edge"><title>mvine&#45;grow&#45;&gt;mvine&#45;grow</title>
<path fill="none" stroke="#31cef0" d="M88.4325,-259.692C113.458,-283.843 147,-277.945 147,-242 147,-209.705 119.925,-201.665 96.277,-217.88"/>
<polygon fill="#31cef0" stroke="#31cef0" points="93.9486,-215.262 88.4325,-224.308 98.3856,-220.677 93.9486,-215.262"/>
</g>
<!-- mvine&#45;revoke&#45;cn -->
<g id="node6" class="node"><title>mvine&#45;revoke&#45;cn</title>
<ellipse fill="#73c764" stroke="#eeeeee" cx="75" cy="-70" rx="72.4586" ry="18"/>
<text text-anchor="middle" x="75" y="-66.9" font-family="Verdana" font-size="12.00">mvine&#45;revoke&#45;cn</text>
</g>
<!-- mvine&#45;grow&#45;&gt;mvine&#45;revoke&#45;cn -->
<g id="edge13" class="edge"><title>mvine&#45;grow&#45;&gt;mvine&#45;revoke&#45;cn</title>
<path fill="none" stroke="#31cef0" d="M70.7245,-223.764C67.7281,-194.159 67.453,-133.433 69.8991,-98.1122"/>
<polygon fill="#31cef0" stroke="#31cef0" points="73.3966,-98.2867 70.7456,-88.0289 66.4212,-97.701 73.3966,-98.2867"/>
</g>
<!-- mvine&#45;grow&#45;&gt;mvine&#45;enforce&#45;cn -->
<g id="edge14" class="edge"><title>mvine&#45;grow&#45;&gt;mvine&#45;enforce&#45;cn</title>
<path fill="none" stroke="#31cef0" d="M79.2544,-260.029C82.2635,-289.488 82.5514,-350.201 80.118,-385.64"/>
<polygon fill="#31cef0" stroke="#31cef0" points="76.617,-385.508 79.2755,-395.764 83.5929,-386.089 76.617,-385.508"/>
</g>
<!-- mvine&#45;revoke&#45;cn&#45;&gt;mvine&#45;grow -->
<g id="edge15" class="edge"><title>mvine&#45;revoke&#45;cn&#45;&gt;mvine&#45;grow</title>
<path fill="none" stroke="#31cef0" d="M79.2544,-88.0289C82.2635,-117.488 82.5514,-178.201 80.118,-213.64"/>
<polygon fill="#31cef0" stroke="#31cef0" points="76.617,-213.508 79.2755,-223.764 83.5929,-214.089 76.617,-213.508"/>
</g>
<!-- mvine&#45;enforce&#45;cn&#45;&gt;mvine&#45;grow -->
<g id="edge16" class="edge"><title>mvine&#45;enforce&#45;cn&#45;&gt;mvine&#45;grow</title>
<path fill="none" stroke="#31cef0" d="M70.7245,-395.764C67.7281,-366.159 67.453,-305.433 69.8991,-270.112"/>
<polygon fill="#31cef0" stroke="#31cef0" points="73.3966,-270.287 70.7456,-260.029 66.4212,-269.701 73.3966,-270.287"/>
</g>
<!-- pplan&#45;add -->
<g id="node8" class="node"><title>pplan&#45;add</title>
<ellipse fill="#73c764" stroke="#eeeeee" cx="999" cy="-414" rx="48.0237" ry="18"/>
<text text-anchor="middle" x="999" y="-410.9" font-family="Verdana" font-size="12.00">pplan&#45;add</text>
</g>
<!-- pplan&#45;add&#45;&gt;pplan&#45;add -->
<g id="edge31" class="edge"><title>pplan&#45;add&#45;&gt;pplan&#45;add</title>
<path fill="none" stroke="#31cef0" d="M1011.31,-431.692C1034.25,-455.843 1065,-449.945 1065,-414 1065,-381.986 1040.61,-373.807 1019.07,-389.462"/>
<polygon fill="#31cef0" stroke="#31cef0" points="1016.49,-387.067 1011.31,-396.308 1021.13,-392.315 1016.49,-387.067"/>
</g>
<!-- update&#45;method&#45;graph&#45;&gt;build&#45;mvine -->
<g id="edge7" class="edge"><title>update&#45;method&#45;graph&#45;&gt;build&#45;mvine</title>
<path fill="none" stroke="#31cef0" d="M654.269,-741.159C587.078,-709.605 436.851,-639.057 365.318,-605.464"/>
<polygon fill="#31cef0" stroke="#31cef0" points="366.713,-602.253 356.174,-601.17 363.737,-608.589 366.713,-602.253"/>
</g>
<!-- update&#45;method&#45;graph&#45;&gt;propagate&#45;walk&#45;strength -->
<g id="edge8" class="edge"><title>update&#45;method&#45;graph&#45;&gt;propagate&#45;walk&#45;strength</title>
<path fill="none" stroke="#31cef0" d="M700.044,-740.078C721.37,-710.116 765.879,-647.584 790.907,-612.42"/>
<polygon fill="#31cef0" stroke="#31cef0" points="793.877,-614.282 796.825,-604.106 788.175,-610.223 793.877,-614.282"/>
</g>
<!-- update&#45;method&#45;graph&#45;&gt;collect&#45;unenforced -->
<g id="edge9" class="edge"><title>update&#45;method&#45;graph&#45;&gt;collect&#45;unenforced</title>
<path fill="none" stroke="#31cef0" d="M667.482,-740.39C629.669,-709.779 548.943,-644.43 506.085,-609.736"/>
<polygon fill="#31cef0" stroke="#31cef0" points="508.267,-606.999 498.292,-603.427 503.862,-612.439 508.267,-606.999"/>
</g>
<!-- exec&#45;from&#45;roots&#45;&gt;new&#45;mark -->
<g id="edge24" class="edge"><title>exec&#45;from&#45;roots&#45;&gt;new&#45;mark</title>
<path fill="none" stroke="#31cef0" d="M957.999,-571.66C856.316,-540.116 601.837,-461.172 498.093,-428.989"/>
<polygon fill="#31cef0" stroke="#31cef0" points="499.122,-425.643 488.534,-426.023 497.048,-432.329 499.122,-425.643"/>
</g>
<!-- exec&#45;from&#45;roots&#45;&gt;pplan&#45;add -->
<g id="edge25" class="edge"><title>exec&#45;from&#45;roots&#45;&gt;pplan&#45;add</title>
<path fill="none" stroke="#31cef0" d="M1000.8,-567.764C1000.45,-538.159 999.735,-477.433 999.319,-442.112"/>
<polygon fill="#31cef0" stroke="#31cef0" points="1002.82,-441.987 999.2,-432.029 995.818,-442.069 1002.82,-441.987"/>
</g>
<!-- any&#45;immediate&#45;upstream&#45;cns&#45;marked -->
<g id="node13" class="node"><title>any&#45;immediate&#45;upstream&#45;cns&#45;marked</title>
<ellipse fill="#eeeeee" stroke="#eeeeee" cx="1236" cy="-414" rx="152.498" ry="18"/>
<text text-anchor="middle" x="1236" y="-410.9" font-family="Verdana" font-size="12.00">any&#45;immediate&#45;upstream&#45;cns&#45;marked</text>
</g>
<!-- exec&#45;from&#45;roots&#45;&gt;any&#45;immediate&#45;upstream&#45;cns&#45;marked -->
<g id="edge26" class="edge"><title>exec&#45;from&#45;roots&#45;&gt;any&#45;immediate&#45;upstream&#45;cns&#45;marked</title>
<path fill="none" stroke="#31cef0" d="M1023.53,-568.7C1065.58,-538.281 1156.09,-472.804 1204.29,-437.94"/>
<polygon fill="#31cef0" stroke="#31cef0" points="1206.44,-440.702 1212.49,-432.005 1202.34,-435.03 1206.44,-440.702"/>
</g>
<!-- exec&#45;from&#45;cycle -->
<g id="node16" class="node"><title>exec&#45;from&#45;cycle</title>
<ellipse fill="#eeeeee" stroke="#eeeeee" cx="1476" cy="-414" rx="69.3418" ry="18"/>
<text text-anchor="middle" x="1476" y="-410.9" font-family="Verdana" font-size="12.00">exec&#45;from&#45;cycle</text>
</g>
<!-- exec&#45;from&#45;roots&#45;&gt;exec&#45;from&#45;cycle -->
<g id="edge27" class="edge"><title>exec&#45;from&#45;roots&#45;&gt;exec&#45;from&#45;cycle</title>
<path fill="none" stroke="#31cef0" d="M1040.28,-570.944C1126.68,-540.019 1333.06,-466.156 1427.42,-432.385"/>
<polygon fill="#31cef0" stroke="#31cef0" points="1428.78,-435.619 1437.01,-428.954 1426.42,-429.028 1428.78,-435.619"/>
</g>
<!-- execute&#45;propagate&#45;valid -->
<g id="node17" class="node"><title>execute&#45;propagate&#45;valid</title>
<ellipse fill="#eeeeee" stroke="#eeeeee" cx="1684" cy="-414" rx="102.206" ry="18"/>
<text text-anchor="middle" x="1684" y="-410.9" font-family="Verdana" font-size="12.00">execute&#45;propagate&#45;valid</text>
</g>
<!-- exec&#45;from&#45;roots&#45;&gt;execute&#45;propagate&#45;valid -->
<g id="edge28" class="edge"><title>exec&#45;from&#45;roots&#45;&gt;execute&#45;propagate&#45;valid</title>
<path fill="none" stroke="#31cef0" d="M1049.57,-572.91C1169.54,-543.05 1480.06,-465.761 1617.21,-431.625"/>
<polygon fill="#31cef0" stroke="#31cef0" points="1618.31,-434.957 1627.17,-429.145 1616.62,-428.164 1618.31,-434.957"/>
</g>
<!-- propagate&#45;walk&#45;strength&#45;&gt;new&#45;mark -->
<g id="edge17" class="edge"><title>propagate&#45;walk&#45;strength&#45;&gt;new&#45;mark</title>
<path fill="none" stroke="#31cef0" d="M775.187,-568.854C708.55,-537.032 560.678,-466.419 490.877,-433.087"/>
<polygon fill="#31cef0" stroke="#31cef0" points="492.095,-429.79 481.563,-428.64 489.078,-436.107 492.095,-429.79"/>
</g>
<!-- propagate&#45;walk&#45;strength&#45;&gt;pplan&#45;add -->
<g id="edge18" class="edge"><title>propagate&#45;walk&#45;strength&#45;&gt;pplan&#45;add</title>
<path fill="none" stroke="#31cef0" d="M827.913,-568.078C862.264,-537.343 934.919,-472.336 973.569,-437.754"/>
<polygon fill="#31cef0" stroke="#31cef0" points="976.156,-440.136 981.275,-430.86 971.488,-434.919 976.156,-440.136"/>
</g>
<!-- propagate&#45;walk&#45;strength&#45;&gt;any&#45;immediate&#45;upstream&#45;cns&#45;marked -->
<g id="edge19" class="edge"><title>propagate&#45;walk&#45;strength&#45;&gt;any&#45;immediate&#45;upstream&#45;cns&#45;marked</title>
<path fill="none" stroke="#31cef0" d="M848.406,-569.312C926.215,-538.334 1099.48,-469.352 1185.52,-435.099"/>
<polygon fill="#31cef0" stroke="#31cef0" points="1186.82,-438.348 1194.82,-431.397 1184.23,-431.844 1186.82,-438.348"/>
</g>
<!-- compute&#45;walkabout&#45;strengths -->
<g id="node14" class="node"><title>compute&#45;walkabout&#45;strengths</title>
<ellipse fill="#eeeeee" stroke="#eeeeee" cx="809" cy="-414" rx="123.599" ry="18"/>
<text text-anchor="middle" x="809" y="-410.9" font-family="Verdana" font-size="12.00">compute&#45;walkabout&#45;strengths</text>
</g>
<!-- propagate&#45;walk&#45;strength&#45;&gt;compute&#45;walkabout&#45;strengths -->
<g id="edge20" class="edge"><title>propagate&#45;walk&#45;strength&#45;&gt;compute&#45;walkabout&#45;strengths</title>
<path fill="none" stroke="#31cef0" d="M809,-567.764C809,-538.159 809,-477.433 809,-442.112"/>
<polygon fill="#31cef0" stroke="#31cef0" points="812.5,-442.029 809,-432.029 805.5,-442.029 812.5,-442.029"/>
</g>
<!-- collect&#45;unenforced&#45;&gt;new&#45;mark -->
<g id="edge21" class="edge"><title>collect&#45;unenforced&#45;&gt;new&#45;mark</title>
<path fill="none" stroke="#31cef0" d="M475.465,-567.764C471.112,-538.159 462.181,-477.433 456.987,-442.112"/>
<polygon fill="#31cef0" stroke="#31cef0" points="460.422,-441.413 455.504,-432.029 453.497,-442.432 460.422,-441.413"/>
</g>
<!-- collect&#45;unenforced&#45;mark -->
<g id="node15" class="node"><title>collect&#45;unenforced&#45;mark</title>
<ellipse fill="#eeeeee" stroke="#eeeeee" cx="269" cy="-414" rx="100.435" ry="18"/>
<text text-anchor="middle" x="269" y="-410.9" font-family="Verdana" font-size="12.00">collect&#45;unenforced&#45;mark</text>
</g>
<!-- collect&#45;unenforced&#45;&gt;collect&#45;unenforced&#45;mark -->
<g id="edge22" class="edge"><title>collect&#45;unenforced&#45;&gt;collect&#45;unenforced&#45;mark</title>
<path fill="none" stroke="#31cef0" d="M457.58,-568.39C420.043,-537.858 340.017,-472.765 297.28,-438.003"/>
<polygon fill="#31cef0" stroke="#31cef0" points="299.47,-435.272 289.503,-431.677 295.052,-440.703 299.47,-435.272"/>
</g>
<!-- collect&#45;unenforced&#45;mark&#45;&gt;collect&#45;unenforced&#45;mark -->
<g id="edge23" class="edge"><title>collect&#45;unenforced&#45;mark&#45;&gt;collect&#45;unenforced&#45;mark</title>
<path fill="none" stroke="#31cef0" d="M291.014,-431.692C332.028,-455.843 387,-449.945 387,-414 387,-380.652 339.686,-373.167 300.099,-391.543"/>
<polygon fill="#31cef0" stroke="#31cef0" points="298.244,-388.564 291.014,-396.308 301.496,-394.763 298.244,-388.564"/>
</g>
<!-- exec&#45;from&#45;cycle&#45;&gt;exec&#45;from&#45;cycle -->
<g id="edge30" class="edge"><title>exec&#45;from&#45;cycle&#45;&gt;exec&#45;from&#45;cycle</title>
<path fill="none" stroke="#31cef0" d="M1492.23,-431.692C1522.47,-455.843 1563,-449.945 1563,-414 1563,-381.284 1529.43,-373.46 1500.59,-390.526"/>
<polygon fill="#31cef0" stroke="#31cef0" points="1498.47,-387.742 1492.23,-396.308 1502.45,-393.5 1498.47,-387.742"/>
</g>
<!-- execute&#45;method -->
<g id="node18" class="node"><title>execute&#45;method</title>
<ellipse fill="#eeeeee" stroke="#eeeeee" cx="1684" cy="-242" rx="71.1125" ry="18"/>
<text text-anchor="middle" x="1684" y="-238.9" font-family="Verdana" font-size="12.00">execute&#45;method</text>
</g>
<!-- execute&#45;propagate&#45;valid&#45;&gt;execute&#45;method -->
<g id="edge29" class="edge"><title>execute&#45;propagate&#45;valid&#45;&gt;execute&#45;method</title>
<path fill="none" stroke="#31cef0" d="M1684,-395.764C1684,-366.159 1684,-305.433 1684,-270.112"/>
<polygon fill="#31cef0" stroke="#31cef0" points="1687.5,-270.029 1684,-260.029 1680.5,-270.029 1687.5,-270.029"/>
</g>
<!-- extract&#45;plan -->
<g id="node19" class="node"><title>extract&#45;plan</title>
<ellipse fill="#eeeeee" stroke="#eeeeee" cx="631" cy="-586" rx="56.0276" ry="18"/>
<text text-anchor="middle" x="631" y="-582.9" font-family="Verdana" font-size="12.00">extract&#45;plan</text>
</g>
<!-- extract&#45;plan&#45;&gt;new&#45;mark -->
<g id="edge32" class="edge"><title>extract&#45;plan&#45;&gt;new&#45;mark</title>
<path fill="none" stroke="#31cef0" d="M613.933,-568.7C582.088,-538.286 513.544,-472.823 477.035,-437.955"/>
<polygon fill="#31cef0" stroke="#31cef0" points="479.405,-435.378 469.756,-431.003 474.57,-440.441 479.405,-435.378"/>
</g>
<!-- extract&#45;plan&#45;&gt;pplan&#45;add -->
<g id="edge33" class="edge"><title>extract&#45;plan&#45;&gt;pplan&#45;add</title>
<path fill="none" stroke="#31cef0" d="M661.743,-570.798C728.615,-539.906 887.166,-466.663 960.531,-432.771"/>
<polygon fill="#31cef0" stroke="#31cef0" points="962.271,-435.823 969.882,-428.451 959.336,-429.468 962.271,-435.823"/>
</g>
<!-- extract&#45;plan&#45;&gt;any&#45;immediate&#45;upstream&#45;cns&#45;marked -->
<g id="edge34" class="edge"><title>extract&#45;plan&#45;&gt;any&#45;immediate&#45;upstream&#45;cns&#45;marked</title>
<path fill="none" stroke="#31cef0" d="M671.635,-573.582C774.171,-544.77 1044.16,-468.905 1169.86,-433.584"/>
<polygon fill="#31cef0" stroke="#31cef0" points="1171.07,-436.88 1179.75,-430.806 1169.18,-430.141 1171.07,-436.88"/>
</g>
<!-- create&#45;valid&#45;plan -->
<g id="node20" class="node"><title>create&#45;valid&#45;plan</title>
<ellipse fill="#eeeeee" stroke="#eeeeee" cx="593" cy="-414" rx="74.2291" ry="18"/>
<text text-anchor="middle" x="593" y="-410.9" font-family="Verdana" font-size="12.00">create&#45;valid&#45;plan</text>
</g>
<!-- extract&#45;plan&#45;&gt;create&#45;valid&#45;plan -->
<g id="edge35" class="edge"><title>extract&#45;plan&#45;&gt;create&#45;valid&#45;plan</title>
<path fill="none" stroke="#31cef0" d="M627.147,-567.764C620.53,-538.159 606.956,-477.433 599.06,-442.112"/>
<polygon fill="#31cef0" stroke="#31cef0" points="602.404,-441.025 596.806,-432.029 595.572,-442.552 602.404,-441.025"/>
</g>
<!-- execute&#45;plan -->
<g id="node21" class="node"><title>execute&#45;plan</title>
<ellipse fill="#eeeeee" stroke="#eeeeee" cx="1684" cy="-586" rx="59.1446" ry="18"/>
<text text-anchor="middle" x="1684" y="-582.9" font-family="Verdana" font-size="12.00">execute&#45;plan</text>
</g>
<!-- execute&#45;plan&#45;&gt;execute&#45;propagate&#45;valid -->
<g id="edge36" class="edge"><title>execute&#45;plan&#45;&gt;execute&#45;propagate&#45;valid</title>
<path fill="none" stroke="#31cef0" d="M1684,-567.764C1684,-538.159 1684,-477.433 1684,-442.112"/>
<polygon fill="#31cef0" stroke="#31cef0" points="1687.5,-442.029 1684,-432.029 1680.5,-442.029 1687.5,-442.029"/>
</g>
</g>
</svg>
