<?xml version="1.0" encoding="UTF-8" standalone="no"?>
<!DOCTYPE svg PUBLIC "-//W3C//DTD SVG 1.1//EN"
 "http://www.w3.org/Graphics/SVG/1.1/DTD/svg11.dtd">
<!-- Generated by graphviz version 2.36.0 (20140111.2315)
 -->
<!-- Title: G Pages: 1 -->
<svg width="1595pt" height="897pt"
 viewBox="0.00 0.00 1595.00 896.72" xmlns="http://www.w3.org/2000/svg" xmlns:xlink="http://www.w3.org/1999/xlink">
<g id="graph0" class="graph" transform="scale(1 1) rotate(0) translate(4 892.72)">
<title>G</title>
<polygon fill="white" stroke="none" points="-4,4 -4,-892.72 1591,-892.72 1591,4 -4,4"/>
<g id="clust1" class="cluster"><title>clustermvine</title>
<polygon fill="#eeeeee" stroke="#eeeeee" points="1300,-20.3136 1300,-566.242 1579,-566.242 1579,-20.3136 1300,-20.3136"/>
<text text-anchor="middle" x="1439.5" y="-551.042" font-family="Times,serif" font-size="14.00">MVine</text>
</g>
<g id="clust2" class="cluster"><title>clusterconstraintsystem</title>
<polygon fill="#eeeeee" stroke="#eeeeee" points="8,-264.077 8,-868.406 1292,-868.406 1292,-264.077 8,-264.077"/>
<text text-anchor="middle" x="650" y="-853.206" font-family="Times,serif" font-size="14.00">ConstraintSystem</text>
</g>
<!-- build&#45;mvine -->
<g id="node1" class="node"><title>build&#45;mvine</title>
<ellipse fill="#cccccc" stroke="#eeeeee" cx="1363" cy="-442.314" rx="54.1832" ry="18"/>
<text text-anchor="middle" x="1363" y="-439.214" font-family="Verdana" font-size="12.00">build&#45;mvine</text>
</g>
<!-- new&#45;mark -->
<g id="node2" class="node"><title>new&#45;mark</title>
<ellipse fill="#cccccc" stroke="#eeeeee" cx="1355" cy="-330.314" rx="47.1009" ry="18"/>
<text text-anchor="middle" x="1355" y="-327.214" font-family="Verdana" font-size="12.00">new&#45;mark</text>
</g>
<!-- build&#45;mvine&#45;&gt;new&#45;mark -->
<g id="edge1" class="edge"><title>build&#45;mvine&#45;&gt;new&#45;mark</title>
<path fill="none" stroke="#31cef0" d="M1361.75,-424.126C1360.47,-406.528 1358.46,-378.921 1356.97,-358.384"/>
<polygon fill="#31cef0" stroke="#31cef0" points="1360.46,-358.1 1356.24,-348.38 1353.48,-358.608 1360.46,-358.1"/>
</g>
<!-- mvine&#45;enforce&#45;cn -->
<g id="node3" class="node"><title>mvine&#45;enforce&#45;cn</title>
<ellipse fill="#cccccc" stroke="#eeeeee" cx="1496" cy="-330.314" rx="75.1525" ry="18"/>
<text text-anchor="middle" x="1496" y="-327.214" font-family="Verdana" font-size="12.00">mvine&#45;enforce&#45;cn</text>
</g>
<!-- build&#45;mvine&#45;&gt;mvine&#45;enforce&#45;cn -->
<g id="edge2" class="edge"><title>build&#45;mvine&#45;&gt;mvine&#45;enforce&#45;cn</title>
<path fill="none" stroke="#31cef0" d="M1382.34,-425.319C1404.96,-406.608 1442.59,-375.488 1468.31,-354.218"/>
<polygon fill="#31cef0" stroke="#31cef0" points="1470.73,-356.757 1476.2,-347.687 1466.27,-351.363 1470.73,-356.757"/>
</g>
<!-- mvine&#45;grow -->
<g id="node4" class="node"><title>mvine&#45;grow</title>
<ellipse fill="#cccccc" stroke="#eeeeee" cx="1496" cy="-198.314" rx="54.2578" ry="18"/>
<text text-anchor="middle" x="1496" y="-195.214" font-family="Verdana" font-size="12.00">mvine&#45;grow</text>
</g>
<!-- mvine&#45;enforce&#45;cn&#45;&gt;mvine&#45;grow -->
<g id="edge7" class="edge"><title>mvine&#45;enforce&#45;cn&#45;&gt;mvine&#45;grow</title>
<path fill="none" stroke="#31cef0" d="M1491.27,-312.318C1488.91,-290.518 1488.62,-252.441 1490.39,-226.57"/>
<polygon fill="#31cef0" stroke="#31cef0" points="1493.9,-226.576 1491.27,-216.313 1486.92,-225.976 1493.9,-226.576"/>
</g>
<!-- mvine&#45;grow&#45;&gt;mvine&#45;enforce&#45;cn -->
<g id="edge5" class="edge"><title>mvine&#45;grow&#45;&gt;mvine&#45;enforce&#45;cn</title>
<path fill="none" stroke="#31cef0" d="M1500.73,-216.313C1503.09,-238.115 1503.38,-276.193 1501.61,-302.062"/>
<polygon fill="#31cef0" stroke="#31cef0" points="1498.1,-302.055 1500.73,-312.318 1505.08,-302.656 1498.1,-302.055"/>
</g>
<!-- mvine&#45;grow&#45;&gt;mvine&#45;grow -->
<g id="edge3" class="edge"><title>mvine&#45;grow&#45;&gt;mvine&#45;grow</title>
<path fill="none" stroke="#31cef0" d="M1518.86,-214.699C1542.11,-224.338 1568,-218.876 1568,-198.314 1568,-180.562 1548.71,-174.065 1528.47,-178.821"/>
<polygon fill="#31cef0" stroke="#31cef0" points="1527.3,-175.523 1518.86,-181.928 1529.45,-182.183 1527.3,-175.523"/>
</g>
<!-- mvine&#45;revoke&#45;cn -->
<g id="node5" class="node"><title>mvine&#45;revoke&#45;cn</title>
<ellipse fill="#cccccc" stroke="#eeeeee" cx="1496" cy="-86.3136" rx="72.4586" ry="18"/>
<text text-anchor="middle" x="1496" y="-83.2136" font-family="Verdana" font-size="12.00">mvine&#45;revoke&#45;cn</text>
</g>
<!-- mvine&#45;grow&#45;&gt;mvine&#45;revoke&#45;cn -->
<g id="edge4" class="edge"><title>mvine&#45;grow&#45;&gt;mvine&#45;revoke&#45;cn</title>
<path fill="none" stroke="#31cef0" d="M1490.94,-180.126C1489.02,-162.528 1488.74,-134.921 1490.09,-114.384"/>
<polygon fill="#31cef0" stroke="#31cef0" points="1493.58,-114.643 1490.95,-104.38 1486.61,-114.044 1493.58,-114.643"/>
</g>
<!-- mvine&#45;revoke&#45;cn&#45;&gt;mvine&#45;grow -->
<g id="edge6" class="edge"><title>mvine&#45;revoke&#45;cn&#45;&gt;mvine&#45;grow</title>
<path fill="none" stroke="#31cef0" d="M1501.05,-104.38C1502.98,-121.932 1503.27,-149.533 1501.92,-170.102"/>
<polygon fill="#31cef0" stroke="#31cef0" points="1498.42,-169.865 1501.06,-180.126 1505.4,-170.46 1498.42,-169.865"/>
</g>
<!-- add&#45;constraint -->
<g id="node6" class="node"><title>add&#45;constraint</title>
<ellipse fill="#cccccc" stroke="#eeeeee" cx="1053" cy="-744.314" rx="64.8797" ry="18"/>
<text text-anchor="middle" x="1053" y="-741.214" font-family="Verdana" font-size="12.00">add&#45;constraint</text>
</g>
<!-- update&#45;method&#45;graph -->
<g id="node7" class="node"><title>update&#45;method&#45;graph</title>
<ellipse fill="#cccccc" stroke="#eeeeee" cx="1063" cy="-632.314" rx="92.4307" ry="18"/>
<text text-anchor="middle" x="1063" y="-629.214" font-family="Verdana" font-size="12.00">update&#45;method&#45;graph</text>
</g>
<!-- add&#45;constraint&#45;&gt;update&#45;method&#45;graph -->
<g id="edge8" class="edge"><title>add&#45;constraint&#45;&gt;update&#45;method&#45;graph</title>
<path fill="none" stroke="#31cef0" d="M1054.56,-726.126C1056.16,-708.528 1058.67,-680.921 1060.54,-660.384"/>
<polygon fill="#31cef0" stroke="#31cef0" points="1064.03,-660.656 1061.45,-650.38 1057.06,-660.022 1064.03,-660.656"/>
</g>
<!-- exec&#45;from&#45;roots -->
<g id="node8" class="node"><title>exec&#45;from&#45;roots</title>
<ellipse fill="#cccccc" stroke="#eeeeee" cx="862" cy="-632.314" rx="70.2656" ry="18"/>
<text text-anchor="middle" x="862" y="-629.214" font-family="Verdana" font-size="12.00">exec&#45;from&#45;roots</text>
</g>
<!-- add&#45;constraint&#45;&gt;exec&#45;from&#45;roots -->
<g id="edge9" class="edge"><title>add&#45;constraint&#45;&gt;exec&#45;from&#45;roots</title>
<path fill="none" stroke="#31cef0" d="M1026.04,-727.787C992.576,-708.515 935.383,-675.576 898.143,-654.129"/>
<polygon fill="#31cef0" stroke="#31cef0" points="899.544,-650.897 889.132,-648.939 896.051,-656.963 899.544,-650.897"/>
</g>
<!-- update&#45;method&#45;graph&#45;&gt;build&#45;mvine -->
<g id="edge14" class="edge"><title>update&#45;method&#45;graph&#45;&gt;build&#45;mvine</title>
<path fill="none" stroke="#31cef0" d="M1091.79,-615.015C1136.26,-589.622 1224.02,-538.61 1296,-491.314 1308.48,-483.111 1321.93,-473.616 1333.47,-465.247"/>
<polygon fill="#31cef0" stroke="#31cef0" points="1335.87,-467.83 1341.88,-459.107 1331.74,-462.177 1335.87,-467.83"/>
</g>
<!-- propagate&#45;walk&#45;strength -->
<g id="node10" class="node"><title>propagate&#45;walk&#45;strength</title>
<ellipse fill="#cccccc" stroke="#eeeeee" cx="1078" cy="-442.314" rx="104.051" ry="18"/>
<text text-anchor="middle" x="1078" y="-439.214" font-family="Verdana" font-size="12.00">propagate&#45;walk&#45;strength</text>
</g>
<!-- update&#45;method&#45;graph&#45;&gt;propagate&#45;walk&#45;strength -->
<g id="edge15" class="edge"><title>update&#45;method&#45;graph&#45;&gt;propagate&#45;walk&#45;strength</title>
<path fill="none" stroke="#31cef0" d="M1064.36,-614.298C1066.96,-581.664 1072.68,-510.028 1075.82,-470.625"/>
<polygon fill="#31cef0" stroke="#31cef0" points="1079.33,-470.673 1076.63,-460.426 1072.35,-470.116 1079.33,-470.673"/>
</g>
<!-- collect&#45;unenforced -->
<g id="node11" class="node"><title>collect&#45;unenforced</title>
<ellipse fill="#cccccc" stroke="#eeeeee" cx="531" cy="-442.314" rx="79.1164" ry="18"/>
<text text-anchor="middle" x="531" y="-439.214" font-family="Verdana" font-size="12.00">collect&#45;unenforced</text>
</g>
<!-- update&#45;method&#45;graph&#45;&gt;collect&#45;unenforced -->
<g id="edge16" class="edge"><title>update&#45;method&#45;graph&#45;&gt;collect&#45;unenforced</title>
<path fill="none" stroke="#31cef0" d="M1014.12,-616.904C934.633,-593.086 772.781,-542.982 639,-491.314 616.858,-482.762 592.675,-472.138 572.815,-463.06"/>
<polygon fill="#31cef0" stroke="#31cef0" points="574.278,-459.881 563.731,-458.878 571.351,-466.239 574.278,-459.881"/>
</g>
<!-- exec&#45;from&#45;roots&#45;&gt;new&#45;mark -->
<g id="edge24" class="edge"><title>exec&#45;from&#45;roots&#45;&gt;new&#45;mark</title>
<path fill="none" stroke="#31cef0" d="M917.933,-621.438C1054.14,-596.839 1394.26,-531.892 1426,-491.314 1459.45,-448.542 1411.62,-387.534 1379.68,-354.581"/>
<polygon fill="#31cef0" stroke="#31cef0" points="1381.88,-351.838 1372.35,-347.22 1376.92,-356.777 1381.88,-351.838"/>
</g>
<!-- pplan&#45;add -->
<g id="node12" class="node"><title>pplan&#45;add</title>
<ellipse fill="#cccccc" stroke="#eeeeee" cx="629" cy="-330.314" rx="48.0237" ry="18"/>
<text text-anchor="middle" x="629" y="-327.214" font-family="Verdana" font-size="12.00">pplan&#45;add</text>
</g>
<!-- exec&#45;from&#45;roots&#45;&gt;pplan&#45;add -->
<g id="edge25" class="edge"><title>exec&#45;from&#45;roots&#45;&gt;pplan&#45;add</title>
<path fill="none" stroke="#31cef0" d="M819.162,-617.981C766.536,-599.098 679.291,-559.097 639,-491.314 614.619,-450.296 618.409,-392.457 623.573,-358.724"/>
<polygon fill="#31cef0" stroke="#31cef0" points="627.056,-359.112 625.263,-348.67 620.153,-357.951 627.056,-359.112"/>
</g>
<!-- any&#45;immediate&#45;upstream&#45;cns&#45;marked -->
<g id="node13" class="node"><title>any&#45;immediate&#45;upstream&#45;cns&#45;marked</title>
<ellipse fill="#cccccc" stroke="#eeeeee" cx="866" cy="-330.314" rx="152.498" ry="18"/>
<text text-anchor="middle" x="866" y="-327.214" font-family="Verdana" font-size="12.00">any&#45;immediate&#45;upstream&#45;cns&#45;marked</text>
</g>
<!-- exec&#45;from&#45;roots&#45;&gt;any&#45;immediate&#45;upstream&#45;cns&#45;marked -->
<g id="edge26" class="edge"><title>exec&#45;from&#45;roots&#45;&gt;any&#45;immediate&#45;upstream&#45;cns&#45;marked</title>
<path fill="none" stroke="#31cef0" d="M875.88,-614.561C895.578,-589.582 930.724,-540.247 944,-491.314 951.797,-462.575 954.181,-452.297 944,-424.314 934.102,-397.109 912.366,-372.321 894.347,-355.19"/>
<polygon fill="#31cef0" stroke="#31cef0" points="896.625,-352.53 886.898,-348.332 891.884,-357.68 896.625,-352.53"/>
</g>
<!-- exec&#45;from&#45;cycle -->
<g id="node16" class="node"><title>exec&#45;from&#45;cycle</title>
<ellipse fill="#cccccc" stroke="#eeeeee" cx="848" cy="-442.314" rx="69.3418" ry="18"/>
<text text-anchor="middle" x="848" y="-439.214" font-family="Verdana" font-size="12.00">exec&#45;from&#45;cycle</text>
</g>
<!-- exec&#45;from&#45;roots&#45;&gt;exec&#45;from&#45;cycle -->
<g id="edge27" class="edge"><title>exec&#45;from&#45;roots&#45;&gt;exec&#45;from&#45;cycle</title>
<path fill="none" stroke="#31cef0" d="M860.733,-614.298C858.303,-581.664 852.968,-510.028 850.034,-470.625"/>
<polygon fill="#31cef0" stroke="#31cef0" points="853.507,-470.138 849.274,-460.426 846.527,-470.658 853.507,-470.138"/>
</g>
<!-- execute&#45;propagate&#45;valid -->
<g id="node17" class="node"><title>execute&#45;propagate&#45;valid</title>
<ellipse fill="#cccccc" stroke="#eeeeee" cx="225" cy="-442.314" rx="102.206" ry="18"/>
<text text-anchor="middle" x="225" y="-439.214" font-family="Verdana" font-size="12.00">execute&#45;propagate&#45;valid</text>
</g>
<!-- exec&#45;from&#45;roots&#45;&gt;execute&#45;propagate&#45;valid -->
<g id="edge28" class="edge"><title>exec&#45;from&#45;roots&#45;&gt;execute&#45;propagate&#45;valid</title>
<path fill="none" stroke="#31cef0" d="M817.713,-618.243C705.909,-585.246 412.124,-498.54 285.023,-461.028"/>
<polygon fill="#31cef0" stroke="#31cef0" points="285.652,-457.565 275.07,-458.091 283.671,-464.279 285.652,-457.565"/>
</g>
<!-- remove&#45;constraint -->
<g id="node9" class="node"><title>remove&#45;constraint</title>
<ellipse fill="#cccccc" stroke="#eeeeee" cx="872" cy="-744.314" rx="78.1943" ry="18"/>
<text text-anchor="middle" x="872" y="-741.214" font-family="Verdana" font-size="12.00">remove&#45;constraint</text>
</g>
<!-- remove&#45;constraint&#45;&gt;update&#45;method&#45;graph -->
<g id="edge12" class="edge"><title>remove&#45;constraint&#45;&gt;update&#45;method&#45;graph</title>
<path fill="none" stroke="#31cef0" d="M899.773,-727.319C933.061,-708.148 988.967,-675.95 1025.92,-654.668"/>
<polygon fill="#31cef0" stroke="#31cef0" points="1027.96,-657.531 1034.88,-649.507 1024.47,-651.465 1027.96,-657.531"/>
</g>
<!-- remove&#45;constraint&#45;&gt;exec&#45;from&#45;roots -->
<g id="edge13" class="edge"><title>remove&#45;constraint&#45;&gt;exec&#45;from&#45;roots</title>
<path fill="none" stroke="#31cef0" d="M870.438,-726.126C868.838,-708.528 866.328,-680.921 864.461,-660.384"/>
<polygon fill="#31cef0" stroke="#31cef0" points="867.943,-660.022 863.552,-650.38 860.971,-660.656 867.943,-660.022"/>
</g>
<!-- remove&#45;constraint&#45;&gt;propagate&#45;walk&#45;strength -->
<g id="edge10" class="edge"><title>remove&#45;constraint&#45;&gt;propagate&#45;walk&#45;strength</title>
<path fill="none" stroke="#31cef0" d="M885.671,-726.315C900.124,-708.027 923.241,-677.855 941,-650.314 950.919,-634.931 951.377,-629.883 961,-614.314 993.81,-561.225 1035.89,-501.554 1059.6,-468.606"/>
<polygon fill="#31cef0" stroke="#31cef0" points="1062.48,-470.594 1065.5,-460.437 1056.81,-466.497 1062.48,-470.594"/>
</g>
<!-- remove&#45;constraint&#45;&gt;collect&#45;unenforced -->
<g id="edge11" class="edge"><title>remove&#45;constraint&#45;&gt;collect&#45;unenforced</title>
<path fill="none" stroke="#31cef0" d="M853.181,-726.757C795.891,-676.355 623.504,-524.696 557.294,-466.446"/>
<polygon fill="#31cef0" stroke="#31cef0" points="559.581,-463.797 549.761,-459.819 554.957,-469.052 559.581,-463.797"/>
</g>
<!-- propagate&#45;walk&#45;strength&#45;&gt;new&#45;mark -->
<g id="edge17" class="edge"><title>propagate&#45;walk&#45;strength&#45;&gt;new&#45;mark</title>
<path fill="none" stroke="#31cef0" d="M1117.69,-425.553C1169.94,-404.805 1261.33,-368.511 1314.15,-347.535"/>
<polygon fill="#31cef0" stroke="#31cef0" points="1315.54,-350.748 1323.55,-343.804 1312.96,-344.242 1315.54,-350.748"/>
</g>
<!-- propagate&#45;walk&#45;strength&#45;&gt;pplan&#45;add -->
<g id="edge18" class="edge"><title>propagate&#45;walk&#45;strength&#45;&gt;pplan&#45;add</title>
<path fill="none" stroke="#31cef0" d="M1020.68,-427.27C931.623,-405.453 761.599,-363.799 677.95,-343.306"/>
<polygon fill="#31cef0" stroke="#31cef0" points="678.734,-339.895 668.189,-340.914 677.069,-346.693 678.734,-339.895"/>
</g>
<!-- propagate&#45;walk&#45;strength&#45;&gt;any&#45;immediate&#45;upstream&#45;cns&#45;marked -->
<g id="edge19" class="edge"><title>propagate&#45;walk&#45;strength&#45;&gt;any&#45;immediate&#45;upstream&#45;cns&#45;marked</title>
<path fill="none" stroke="#31cef0" d="M1046.72,-425.083C1009.67,-405.859 947.841,-373.778 906.993,-352.583"/>
<polygon fill="#31cef0" stroke="#31cef0" points="908.593,-349.471 898.105,-347.972 905.369,-355.684 908.593,-349.471"/>
</g>
<!-- compute&#45;walkabout&#45;strengths -->
<g id="node14" class="node"><title>compute&#45;walkabout&#45;strengths</title>
<ellipse fill="#cccccc" stroke="#eeeeee" cx="1160" cy="-330.314" rx="123.599" ry="18"/>
<text text-anchor="middle" x="1160" y="-327.214" font-family="Verdana" font-size="12.00">compute&#45;walkabout&#45;strengths</text>
</g>
<!-- propagate&#45;walk&#45;strength&#45;&gt;compute&#45;walkabout&#45;strengths -->
<g id="edge20" class="edge"><title>propagate&#45;walk&#45;strength&#45;&gt;compute&#45;walkabout&#45;strengths</title>
<path fill="none" stroke="#31cef0" d="M1090.81,-424.126C1104.35,-405.963 1125.84,-377.137 1141.28,-356.429"/>
<polygon fill="#31cef0" stroke="#31cef0" points="1144.11,-358.49 1147.28,-348.38 1138.49,-354.306 1144.11,-358.49"/>
</g>
<!-- collect&#45;unenforced&#45;&gt;new&#45;mark -->
<g id="edge21" class="edge"><title>collect&#45;unenforced&#45;&gt;new&#45;mark</title>
<path fill="none" stroke="#31cef0" d="M593.186,-431.079C608.171,-428.737 624.143,-426.341 639,-424.314 930.247,-384.563 1007.79,-406.093 1296,-348.314 1300.65,-347.381 1305.47,-346.258 1310.26,-345.039"/>
<polygon fill="#31cef0" stroke="#31cef0" points="1311.23,-348.404 1319.98,-342.434 1309.42,-341.643 1311.23,-348.404"/>
</g>
<!-- collect&#45;unenforced&#45;mark -->
<g id="node15" class="node"><title>collect&#45;unenforced&#45;mark</title>
<ellipse fill="#cccccc" stroke="#eeeeee" cx="277" cy="-330.314" rx="100.435" ry="18"/>
<text text-anchor="middle" x="277" y="-327.214" font-family="Verdana" font-size="12.00">collect&#45;unenforced&#45;mark</text>
</g>
<!-- collect&#45;unenforced&#45;&gt;collect&#45;unenforced&#45;mark -->
<g id="edge22" class="edge"><title>collect&#45;unenforced&#45;&gt;collect&#45;unenforced&#45;mark</title>
<path fill="none" stroke="#31cef0" d="M495.949,-426.134C450.945,-406.644 372.74,-372.776 322.994,-351.232"/>
<polygon fill="#31cef0" stroke="#31cef0" points="324.315,-347.99 313.747,-347.228 321.533,-354.414 324.315,-347.99"/>
</g>
<!-- pplan&#45;add&#45;&gt;pplan&#45;add -->
<g id="edge31" class="edge"><title>pplan&#45;add&#45;&gt;pplan&#45;add</title>
<path fill="none" stroke="#31cef0" d="M649.951,-346.699C671.271,-356.338 695,-350.876 695,-330.314 695,-312.803 677.792,-306.243 659.519,-310.634"/>
<polygon fill="#31cef0" stroke="#31cef0" points="658.267,-307.363 649.951,-313.928 660.546,-313.982 658.267,-307.363"/>
</g>
<!-- collect&#45;unenforced&#45;mark&#45;&gt;collect&#45;unenforced&#45;mark -->
<g id="edge23" class="edge"><title>collect&#45;unenforced&#45;mark&#45;&gt;collect&#45;unenforced&#45;mark</title>
<path fill="none" stroke="#31cef0" d="M315.676,-347.002C353.472,-356.22 395,-350.657 395,-330.314 395,-311.718 360.303,-305.472 325.474,-311.576"/>
<polygon fill="#31cef0" stroke="#31cef0" points="324.748,-308.152 315.676,-313.625 326.181,-315.004 324.748,-308.152"/>
</g>
<!-- exec&#45;from&#45;cycle&#45;&gt;exec&#45;from&#45;cycle -->
<g id="edge30" class="edge"><title>exec&#45;from&#45;cycle&#45;&gt;exec&#45;from&#45;cycle</title>
<path fill="none" stroke="#31cef0" d="M876.066,-458.852C904.052,-468.279 935,-462.767 935,-442.314 935,-424.257 910.881,-417.845 885.972,-423.076"/>
<polygon fill="#31cef0" stroke="#31cef0" points="884.794,-419.77 876.066,-425.775 886.634,-426.524 884.794,-419.77"/>
</g>
<!-- execute&#45;method -->
<g id="node18" class="node"><title>execute&#45;method</title>
<ellipse fill="#cccccc" stroke="#eeeeee" cx="87" cy="-330.314" rx="71.1125" ry="18"/>
<text text-anchor="middle" x="87" y="-327.214" font-family="Verdana" font-size="12.00">execute&#45;method</text>
</g>
<!-- execute&#45;propagate&#45;valid&#45;&gt;execute&#45;method -->
<g id="edge29" class="edge"><title>execute&#45;propagate&#45;valid&#45;&gt;execute&#45;method</title>
<path fill="none" stroke="#31cef0" d="M204.041,-424.607C180.5,-405.843 142.148,-375.272 115.802,-354.272"/>
<polygon fill="#31cef0" stroke="#31cef0" points="117.706,-351.313 107.704,-347.817 113.342,-356.787 117.706,-351.313"/>
</g>
<!-- extract&#45;plan -->
<g id="node19" class="node"><title>extract&#45;plan</title>
<ellipse fill="#cccccc" stroke="#eeeeee" cx="704" cy="-442.314" rx="56.0276" ry="18"/>
<text text-anchor="middle" x="704" y="-439.214" font-family="Verdana" font-size="12.00">extract&#45;plan</text>
</g>
<!-- extract&#45;plan&#45;&gt;new&#45;mark -->
<g id="edge32" class="edge"><title>extract&#45;plan&#45;&gt;new&#45;mark</title>
<path fill="none" stroke="#31cef0" d="M744.751,-429.906C752.753,-427.879 761.111,-425.909 769,-424.314 1000.95,-377.412 1064.65,-398.08 1296,-348.314 1300.46,-347.355 1305.07,-346.241 1309.67,-345.052"/>
<polygon fill="#31cef0" stroke="#31cef0" points="1310.89,-348.347 1319.63,-342.358 1309.07,-341.59 1310.89,-348.347"/>
</g>
<!-- extract&#45;plan&#45;&gt;pplan&#45;add -->
<g id="edge33" class="edge"><title>extract&#45;plan&#45;&gt;pplan&#45;add</title>
<path fill="none" stroke="#31cef0" d="M692.609,-424.607C680.203,-406.411 660.228,-377.114 645.973,-356.207"/>
<polygon fill="#31cef0" stroke="#31cef0" points="648.778,-354.108 640.252,-347.817 642.994,-358.051 648.778,-354.108"/>
</g>
<!-- extract&#45;plan&#45;&gt;any&#45;immediate&#45;upstream&#45;cns&#45;marked -->
<g id="edge34" class="edge"><title>extract&#45;plan&#45;&gt;any&#45;immediate&#45;upstream&#45;cns&#45;marked</title>
<path fill="none" stroke="#31cef0" d="M726.867,-425.787C754.451,-407.057 801.045,-375.419 832.639,-353.966"/>
<polygon fill="#31cef0" stroke="#31cef0" points="834.817,-356.718 841.124,-348.205 830.885,-350.927 834.817,-356.718"/>
</g>
<!-- create&#45;valid&#45;plan -->
<g id="node20" class="node"><title>create&#45;valid&#45;plan</title>
<ellipse fill="#cccccc" stroke="#eeeeee" cx="488" cy="-330.314" rx="74.2291" ry="18"/>
<text text-anchor="middle" x="488" y="-327.214" font-family="Verdana" font-size="12.00">create&#45;valid&#45;plan</text>
</g>
<!-- extract&#45;plan&#45;&gt;create&#45;valid&#45;plan -->
<g id="edge35" class="edge"><title>extract&#45;plan&#45;&gt;create&#45;valid&#45;plan</title>
<path fill="none" stroke="#31cef0" d="M675.317,-426.706C637.363,-407.378 570.281,-373.216 527.54,-351.45"/>
<polygon fill="#31cef0" stroke="#31cef0" points="529.045,-348.288 518.546,-346.869 525.868,-354.526 529.045,-348.288"/>
</g>
<!-- execute&#45;plan -->
<g id="node21" class="node"><title>execute&#45;plan</title>
<ellipse fill="#cccccc" stroke="#eeeeee" cx="225" cy="-632.314" rx="59.1446" ry="18"/>
<text text-anchor="middle" x="225" y="-629.214" font-family="Verdana" font-size="12.00">execute&#45;plan</text>
</g>
<!-- execute&#45;plan&#45;&gt;execute&#45;propagate&#45;valid -->
<g id="edge36" class="edge"><title>execute&#45;plan&#45;&gt;execute&#45;propagate&#45;valid</title>
<path fill="none" stroke="#31cef0" d="M225,-614.298C225,-581.664 225,-510.028 225,-470.625"/>
<polygon fill="#31cef0" stroke="#31cef0" points="228.5,-470.426 225,-460.426 221.5,-470.426 228.5,-470.426"/>
</g>
</g>
</svg>
