<?xml version="1.0" encoding="UTF-8" standalone="no"?>
<!DOCTYPE svg PUBLIC "-//W3C//DTD SVG 1.1//EN"
 "http://www.w3.org/Graphics/SVG/1.1/DTD/svg11.dtd">
<!-- Generated by graphviz version 2.36.0 (20140111.2315)
 -->
<!-- Title: G Pages: 1 -->
<svg width="1794pt" height="1008pt"
 viewBox="0.00 0.00 1794.00 1008.16" xmlns="http://www.w3.org/2000/svg" xmlns:xlink="http://www.w3.org/1999/xlink">
<g id="graph0" class="graph" transform="scale(1 1) rotate(0) translate(4 1004.16)">
<title>G</title>
<polygon fill="white" stroke="none" points="-4,4 -4,-1004.16 1790,-1004.16 1790,4 -4,4"/>
<!-- add&#45;constraint -->
<g id="node1" class="node"><title>add&#45;constraint</title>
<ellipse fill="#eeeeee" stroke="#eeeeee" cx="771" cy="-930" rx="64.8797" ry="18"/>
<text text-anchor="middle" x="771" y="-926.9" font-family="Verdana" font-size="12.00">add&#45;constraint</text>
</g>
<!-- update&#45;method&#45;graph -->
<g id="node2" class="node"><title>update&#45;method&#45;graph</title>
<ellipse fill="#eeeeee" stroke="#eeeeee" cx="754" cy="-758" rx="92.4307" ry="18"/>
<text text-anchor="middle" x="754" y="-754.9" font-family="Verdana" font-size="12.00">update&#45;method&#45;graph</text>
</g>
<!-- add&#45;constraint&#45;&gt;update&#45;method&#45;graph -->
<g id="edge1" class="edge"><title>add&#45;constraint&#45;&gt;update&#45;method&#45;graph</title>
<path fill="none" stroke="#31cef0" d="M769.276,-911.764C766.316,-882.159 760.243,-821.433 756.711,-786.112"/>
<polygon fill="#31cef0" stroke="#31cef0" points="760.181,-785.631 755.703,-776.029 753.215,-786.328 760.181,-785.631"/>
</g>
<!-- exec&#45;from&#45;roots -->
<g id="node3" class="node"><title>exec&#45;from&#45;roots</title>
<ellipse fill="#eeeeee" stroke="#eeeeee" cx="1143" cy="-586" rx="70.2656" ry="18"/>
<text text-anchor="middle" x="1143" y="-582.9" font-family="Verdana" font-size="12.00">exec&#45;from&#45;roots</text>
</g>
<!-- add&#45;constraint&#45;&gt;exec&#45;from&#45;roots -->
<g id="edge2" class="edge"><title>add&#45;constraint&#45;&gt;exec&#45;from&#45;roots</title>
<path fill="none" stroke="#31cef0" d="M788.942,-912.505C849.453,-856.874 1046.2,-675.998 1117.17,-610.746"/>
<polygon fill="#31cef0" stroke="#31cef0" points="1119.81,-613.075 1124.8,-603.731 1115.07,-607.922 1119.81,-613.075"/>
</g>
<!-- propagate&#45;walk&#45;strength -->
<g id="node5" class="node"><title>propagate&#45;walk&#45;strength</title>
<ellipse fill="#eeeeee" stroke="#eeeeee" cx="951" cy="-586" rx="104.051" ry="18"/>
<text text-anchor="middle" x="951" y="-582.9" font-family="Verdana" font-size="12.00">propagate&#45;walk&#45;strength</text>
</g>
<!-- update&#45;method&#45;graph&#45;&gt;propagate&#45;walk&#45;strength -->
<g id="edge8" class="edge"><title>update&#45;method&#45;graph&#45;&gt;propagate&#45;walk&#45;strength</title>
<path fill="none" stroke="#31cef0" d="M773.248,-740.39C808.465,-710 883.36,-645.369 923.78,-610.489"/>
<polygon fill="#31cef0" stroke="#31cef0" points="926.098,-613.112 931.382,-603.929 921.525,-607.813 926.098,-613.112"/>
</g>
<!-- collect&#45;unenforced -->
<g id="node6" class="node"><title>collect&#45;unenforced</title>
<ellipse fill="#eeeeee" stroke="#eeeeee" cx="620" cy="-586" rx="79.1164" ry="18"/>
<text text-anchor="middle" x="620" y="-582.9" font-family="Verdana" font-size="12.00">collect&#45;unenforced</text>
</g>
<!-- update&#45;method&#45;graph&#45;&gt;collect&#45;unenforced -->
<g id="edge9" class="edge"><title>update&#45;method&#45;graph&#45;&gt;collect&#45;unenforced</title>
<path fill="none" stroke="#31cef0" d="M740.662,-740.078C716.983,-710.038 667.499,-647.26 639.822,-612.147"/>
<polygon fill="#31cef0" stroke="#31cef0" points="642.224,-609.54 633.284,-603.853 636.726,-613.874 642.224,-609.54"/>
</g>
<!-- build&#45;mvine -->
<g id="node7" class="node"><title>build&#45;mvine</title>
<ellipse fill="#eeeeee" stroke="#eeeeee" cx="468" cy="-586" rx="54.1832" ry="18"/>
<text text-anchor="middle" x="468" y="-582.9" font-family="Verdana" font-size="12.00">build&#45;mvine</text>
</g>
<!-- update&#45;method&#45;graph&#45;&gt;build&#45;mvine -->
<g id="edge7" class="edge"><title>update&#45;method&#45;graph&#45;&gt;build&#45;mvine</title>
<path fill="none" stroke="#31cef0" d="M726.577,-740.7C674.023,-709.461 559.264,-641.248 501.963,-607.188"/>
<polygon fill="#31cef0" stroke="#31cef0" points="503.663,-604.127 493.279,-602.026 500.086,-610.144 503.663,-604.127"/>
</g>
<!-- new&#45;mark -->
<g id="node8" class="node"><title>new&#45;mark</title>
<ellipse fill="#eeeeee" stroke="#eeeeee" cx="620" cy="-414" rx="47.1009" ry="18"/>
<text text-anchor="middle" x="620" y="-410.9" font-family="Verdana" font-size="12.00">new&#45;mark</text>
</g>
<!-- exec&#45;from&#45;roots&#45;&gt;new&#45;mark -->
<g id="edge24" class="edge"><title>exec&#45;from&#45;roots&#45;&gt;new&#45;mark</title>
<path fill="none" stroke="#31cef0" d="M1101.08,-571.376C1003.95,-539.802 764.153,-461.857 664.52,-429.471"/>
<polygon fill="#31cef0" stroke="#31cef0" points="665.355,-426.062 654.763,-426.299 663.191,-432.719 665.355,-426.062"/>
</g>
<!-- pplan&#45;add -->
<g id="node12" class="node"><title>pplan&#45;add</title>
<ellipse fill="#eeeeee" stroke="#eeeeee" cx="1322" cy="-414" rx="48.0237" ry="18"/>
<text text-anchor="middle" x="1322" y="-410.9" font-family="Verdana" font-size="12.00">pplan&#45;add</text>
</g>
<!-- exec&#45;from&#45;roots&#45;&gt;pplan&#45;add -->
<g id="edge25" class="edge"><title>exec&#45;from&#45;roots&#45;&gt;pplan&#45;add</title>
<path fill="none" stroke="#31cef0" d="M1160.49,-568.39C1192.68,-537.814 1261.37,-472.579 1297.94,-437.854"/>
<polygon fill="#31cef0" stroke="#31cef0" points="1300.38,-440.355 1305.23,-430.931 1295.56,-435.28 1300.38,-440.355"/>
</g>
<!-- any&#45;immediate&#45;upstream&#45;cns&#45;marked -->
<g id="node13" class="node"><title>any&#45;immediate&#45;upstream&#45;cns&#45;marked</title>
<ellipse fill="#eeeeee" stroke="#eeeeee" cx="838" cy="-414" rx="152.498" ry="18"/>
<text text-anchor="middle" x="838" y="-410.9" font-family="Verdana" font-size="12.00">any&#45;immediate&#45;upstream&#45;cns&#45;marked</text>
</g>
<!-- exec&#45;from&#45;roots&#45;&gt;any&#45;immediate&#45;upstream&#45;cns&#45;marked -->
<g id="edge26" class="edge"><title>exec&#45;from&#45;roots&#45;&gt;any&#45;immediate&#45;upstream&#45;cns&#45;marked</title>
<path fill="none" stroke="#31cef0" d="M1115.12,-569.463C1060.46,-538.995 939.099,-471.351 876.7,-436.57"/>
<polygon fill="#31cef0" stroke="#31cef0" points="878.375,-433.497 867.936,-431.686 874.967,-439.612 878.375,-433.497"/>
</g>
<!-- exec&#45;from&#45;cycle -->
<g id="node16" class="node"><title>exec&#45;from&#45;cycle</title>
<ellipse fill="#eeeeee" stroke="#eeeeee" cx="1476" cy="-414" rx="69.3418" ry="18"/>
<text text-anchor="middle" x="1476" y="-410.9" font-family="Verdana" font-size="12.00">exec&#45;from&#45;cycle</text>
</g>
<!-- exec&#45;from&#45;roots&#45;&gt;exec&#45;from&#45;cycle -->
<g id="edge27" class="edge"><title>exec&#45;from&#45;roots&#45;&gt;exec&#45;from&#45;cycle</title>
<path fill="none" stroke="#31cef0" d="M1173.14,-569.614C1233.54,-538.78 1369.36,-469.442 1436.66,-435.082"/>
<polygon fill="#31cef0" stroke="#31cef0" points="1438.37,-438.138 1445.69,-430.474 1435.19,-431.904 1438.37,-438.138"/>
</g>
<!-- execute&#45;propagate&#45;valid -->
<g id="node17" class="node"><title>execute&#45;propagate&#45;valid</title>
<ellipse fill="#eeeeee" stroke="#eeeeee" cx="1684" cy="-414" rx="102.206" ry="18"/>
<text text-anchor="middle" x="1684" y="-410.9" font-family="Verdana" font-size="12.00">execute&#45;propagate&#45;valid</text>
</g>
<!-- exec&#45;from&#45;roots&#45;&gt;execute&#45;propagate&#45;valid -->
<g id="edge28" class="edge"><title>exec&#45;from&#45;roots&#45;&gt;execute&#45;propagate&#45;valid</title>
<path fill="none" stroke="#31cef0" d="M1185.45,-571.66C1281.83,-541.375 1517.26,-467.396 1626.53,-433.058"/>
<polygon fill="#31cef0" stroke="#31cef0" points="1627.9,-436.298 1636.39,-429.961 1625.8,-429.619 1627.9,-436.298"/>
</g>
<!-- remove&#45;constraint -->
<g id="node4" class="node"><title>remove&#45;constraint</title>
<ellipse fill="#eeeeee" stroke="#eeeeee" cx="942" cy="-930" rx="78.1943" ry="18"/>
<text text-anchor="middle" x="942" y="-926.9" font-family="Verdana" font-size="12.00">remove&#45;constraint</text>
</g>
<!-- remove&#45;constraint&#45;&gt;update&#45;method&#45;graph -->
<g id="edge5" class="edge"><title>remove&#45;constraint&#45;&gt;update&#45;method&#45;graph</title>
<path fill="none" stroke="#31cef0" d="M923.631,-912.39C890.077,-882.048 818.778,-817.576 780.162,-782.657"/>
<polygon fill="#31cef0" stroke="#31cef0" points="782.208,-779.788 772.443,-775.677 777.513,-784.98 782.208,-779.788"/>
</g>
<!-- remove&#45;constraint&#45;&gt;exec&#45;from&#45;roots -->
<g id="edge6" class="edge"><title>remove&#45;constraint&#45;&gt;exec&#45;from&#45;roots</title>
<path fill="none" stroke="#31cef0" d="M951.968,-912.04C984.651,-856.43 1088.71,-679.369 1127.89,-612.711"/>
<polygon fill="#31cef0" stroke="#31cef0" points="1130.92,-614.457 1132.97,-604.062 1124.89,-610.91 1130.92,-614.457"/>
</g>
<!-- remove&#45;constraint&#45;&gt;propagate&#45;walk&#45;strength -->
<g id="edge3" class="edge"><title>remove&#45;constraint&#45;&gt;propagate&#45;walk&#45;strength</title>
<path fill="none" stroke="#31cef0" d="M942.459,-911.57C943.921,-855.996 948.482,-682.673 950.27,-614.725"/>
<polygon fill="#31cef0" stroke="#31cef0" points="953.778,-614.484 950.542,-604.395 946.78,-614.299 953.778,-614.484"/>
</g>
<!-- remove&#45;constraint&#45;&gt;collect&#45;unenforced -->
<g id="edge4" class="edge"><title>remove&#45;constraint&#45;&gt;collect&#45;unenforced</title>
<path fill="none" stroke="#31cef0" d="M937.606,-911.821C927.829,-876.321 901.403,-793.711 855,-740 801.367,-677.922 716.519,-631.276 664.788,-606.643"/>
<polygon fill="#31cef0" stroke="#31cef0" points="666.069,-603.379 655.529,-602.302 663.097,-609.716 666.069,-603.379"/>
</g>
<!-- propagate&#45;walk&#45;strength&#45;&gt;new&#45;mark -->
<g id="edge17" class="edge"><title>propagate&#45;walk&#45;strength&#45;&gt;new&#45;mark</title>
<path fill="none" stroke="#31cef0" d="M919.262,-568.7C857.418,-536.937 721.143,-466.946 656.023,-433.501"/>
<polygon fill="#31cef0" stroke="#31cef0" points="657.443,-430.296 646.949,-428.841 654.245,-436.523 657.443,-430.296"/>
</g>
<!-- propagate&#45;walk&#45;strength&#45;&gt;pplan&#45;add -->
<g id="edge18" class="edge"><title>propagate&#45;walk&#45;strength&#45;&gt;pplan&#45;add</title>
<path fill="none" stroke="#31cef0" d="M985.903,-569.007C1055.56,-537.089 1211.33,-465.71 1283.7,-432.552"/>
<polygon fill="#31cef0" stroke="#31cef0" points="1285.29,-435.671 1292.92,-428.324 1282.37,-429.308 1285.29,-435.671"/>
</g>
<!-- propagate&#45;walk&#45;strength&#45;&gt;any&#45;immediate&#45;upstream&#45;cns&#45;marked -->
<g id="edge19" class="edge"><title>propagate&#45;walk&#45;strength&#45;&gt;any&#45;immediate&#45;upstream&#45;cns&#45;marked</title>
<path fill="none" stroke="#31cef0" d="M939.752,-568.078C919.92,-538.243 878.622,-476.113 855.195,-440.868"/>
<polygon fill="#31cef0" stroke="#31cef0" points="857.821,-438.496 849.37,-432.106 851.991,-442.371 857.821,-438.496"/>
</g>
<!-- compute&#45;walkabout&#45;strengths -->
<g id="node14" class="node"><title>compute&#45;walkabout&#45;strengths</title>
<ellipse fill="#eeeeee" stroke="#eeeeee" cx="1132" cy="-414" rx="123.599" ry="18"/>
<text text-anchor="middle" x="1132" y="-410.9" font-family="Verdana" font-size="12.00">compute&#45;walkabout&#45;strengths</text>
</g>
<!-- propagate&#45;walk&#45;strength&#45;&gt;compute&#45;walkabout&#45;strengths -->
<g id="edge20" class="edge"><title>propagate&#45;walk&#45;strength&#45;&gt;compute&#45;walkabout&#45;strengths</title>
<path fill="none" stroke="#31cef0" d="M969.017,-568.078C1001.41,-537.657 1069.55,-473.659 1106.64,-438.822"/>
<polygon fill="#31cef0" stroke="#31cef0" points="1109.16,-441.251 1114.06,-431.853 1104.37,-436.148 1109.16,-441.251"/>
</g>
<!-- collect&#45;unenforced&#45;&gt;new&#45;mark -->
<g id="edge21" class="edge"><title>collect&#45;unenforced&#45;&gt;new&#45;mark</title>
<path fill="none" stroke="#31cef0" d="M620,-567.764C620,-538.159 620,-477.433 620,-442.112"/>
<polygon fill="#31cef0" stroke="#31cef0" points="623.5,-442.029 620,-432.029 616.5,-442.029 623.5,-442.029"/>
</g>
<!-- collect&#45;unenforced&#45;mark -->
<g id="node15" class="node"><title>collect&#45;unenforced&#45;mark</title>
<ellipse fill="#eeeeee" stroke="#eeeeee" cx="269" cy="-414" rx="100.435" ry="18"/>
<text text-anchor="middle" x="269" y="-410.9" font-family="Verdana" font-size="12.00">collect&#45;unenforced&#45;mark</text>
</g>
<!-- collect&#45;unenforced&#45;&gt;collect&#45;unenforced&#45;mark -->
<g id="edge22" class="edge"><title>collect&#45;unenforced&#45;&gt;collect&#45;unenforced&#45;mark</title>
<path fill="none" stroke="#31cef0" d="M587.921,-569.463C524.35,-538.674 382.396,-469.921 311.29,-435.482"/>
<polygon fill="#31cef0" stroke="#31cef0" points="312.68,-432.267 302.154,-431.058 309.629,-438.567 312.68,-432.267"/>
</g>
<!-- build&#45;mvine&#45;&gt;new&#45;mark -->
<g id="edge10" class="edge"><title>build&#45;mvine&#45;&gt;new&#45;mark</title>
<path fill="none" stroke="#31cef0" d="M482.851,-568.39C509.892,-538.148 567.25,-473.997 598.541,-439.001"/>
<polygon fill="#31cef0" stroke="#31cef0" points="601.478,-440.966 605.535,-431.178 596.26,-436.3 601.478,-440.966"/>
</g>
<!-- mvine&#45;enforce&#45;cn -->
<g id="node9" class="node"><title>mvine&#45;enforce&#45;cn</title>
<ellipse fill="#eeeeee" stroke="#eeeeee" cx="75" cy="-414" rx="75.1525" ry="18"/>
<text text-anchor="middle" x="75" y="-410.9" font-family="Verdana" font-size="12.00">mvine&#45;enforce&#45;cn</text>
</g>
<!-- build&#45;mvine&#45;&gt;mvine&#45;enforce&#45;cn -->
<g id="edge11" class="edge"><title>build&#45;mvine&#45;&gt;mvine&#45;enforce&#45;cn</title>
<path fill="none" stroke="#31cef0" d="M436.172,-571.232C366.197,-540.963 198.861,-468.578 118.942,-434.008"/>
<polygon fill="#31cef0" stroke="#31cef0" points="120.209,-430.743 109.642,-429.985 117.43,-437.167 120.209,-430.743"/>
</g>
<!-- mvine&#45;grow -->
<g id="node10" class="node"><title>mvine&#45;grow</title>
<ellipse fill="#eeeeee" stroke="#eeeeee" cx="75" cy="-242" rx="54.2578" ry="18"/>
<text text-anchor="middle" x="75" y="-238.9" font-family="Verdana" font-size="12.00">mvine&#45;grow</text>
</g>
<!-- mvine&#45;enforce&#45;cn&#45;&gt;mvine&#45;grow -->
<g id="edge16" class="edge"><title>mvine&#45;enforce&#45;cn&#45;&gt;mvine&#45;grow</title>
<path fill="none" stroke="#31cef0" d="M70.7245,-395.764C67.7281,-366.159 67.453,-305.433 69.8991,-270.112"/>
<polygon fill="#31cef0" stroke="#31cef0" points="73.3966,-270.287 70.7456,-260.029 66.4212,-269.701 73.3966,-270.287"/>
</g>
<!-- mvine&#45;grow&#45;&gt;mvine&#45;enforce&#45;cn -->
<g id="edge14" class="edge"><title>mvine&#45;grow&#45;&gt;mvine&#45;enforce&#45;cn</title>
<path fill="none" stroke="#31cef0" d="M79.2544,-260.029C82.2635,-289.488 82.5514,-350.201 80.118,-385.64"/>
<polygon fill="#31cef0" stroke="#31cef0" points="76.617,-385.508 79.2755,-395.764 83.5929,-386.089 76.617,-385.508"/>
</g>
<!-- mvine&#45;grow&#45;&gt;mvine&#45;grow -->
<g id="edge12" class="edge"><title>mvine&#45;grow&#45;&gt;mvine&#45;grow</title>
<path fill="none" stroke="#31cef0" d="M88.4325,-259.692C113.458,-283.843 147,-277.945 147,-242 147,-209.705 119.925,-201.665 96.277,-217.88"/>
<polygon fill="#31cef0" stroke="#31cef0" points="93.9486,-215.262 88.4325,-224.308 98.3856,-220.677 93.9486,-215.262"/>
</g>
<!-- mvine&#45;revoke&#45;cn -->
<g id="node11" class="node"><title>mvine&#45;revoke&#45;cn</title>
<ellipse fill="#eeeeee" stroke="#eeeeee" cx="75" cy="-70" rx="72.4586" ry="18"/>
<text text-anchor="middle" x="75" y="-66.9" font-family="Verdana" font-size="12.00">mvine&#45;revoke&#45;cn</text>
</g>
<!-- mvine&#45;grow&#45;&gt;mvine&#45;revoke&#45;cn -->
<g id="edge13" class="edge"><title>mvine&#45;grow&#45;&gt;mvine&#45;revoke&#45;cn</title>
<path fill="none" stroke="#31cef0" d="M70.7245,-223.764C67.7281,-194.159 67.453,-133.433 69.8991,-98.1122"/>
<polygon fill="#31cef0" stroke="#31cef0" points="73.3966,-98.2867 70.7456,-88.0289 66.4212,-97.701 73.3966,-98.2867"/>
</g>
<!-- mvine&#45;revoke&#45;cn&#45;&gt;mvine&#45;grow -->
<g id="edge15" class="edge"><title>mvine&#45;revoke&#45;cn&#45;&gt;mvine&#45;grow</title>
<path fill="none" stroke="#31cef0" d="M79.2544,-88.0289C82.2635,-117.488 82.5514,-178.201 80.118,-213.64"/>
<polygon fill="#31cef0" stroke="#31cef0" points="76.617,-213.508 79.2755,-223.764 83.5929,-214.089 76.617,-213.508"/>
</g>
<!-- pplan&#45;add&#45;&gt;pplan&#45;add -->
<g id="edge31" class="edge"><title>pplan&#45;add&#45;&gt;pplan&#45;add</title>
<path fill="none" stroke="#31cef0" d="M1334.31,-431.692C1357.25,-455.843 1388,-449.945 1388,-414 1388,-381.986 1363.61,-373.807 1342.07,-389.462"/>
<polygon fill="#31cef0" stroke="#31cef0" points="1339.49,-387.067 1334.31,-396.308 1344.13,-392.315 1339.49,-387.067"/>
</g>
<!-- collect&#45;unenforced&#45;mark&#45;&gt;collect&#45;unenforced&#45;mark -->
<g id="edge23" class="edge"><title>collect&#45;unenforced&#45;mark&#45;&gt;collect&#45;unenforced&#45;mark</title>
<path fill="none" stroke="#31cef0" d="M291.014,-431.692C332.028,-455.843 387,-449.945 387,-414 387,-380.652 339.686,-373.167 300.099,-391.543"/>
<polygon fill="#31cef0" stroke="#31cef0" points="298.244,-388.564 291.014,-396.308 301.496,-394.763 298.244,-388.564"/>
</g>
<!-- exec&#45;from&#45;cycle&#45;&gt;exec&#45;from&#45;cycle -->
<g id="edge30" class="edge"><title>exec&#45;from&#45;cycle&#45;&gt;exec&#45;from&#45;cycle</title>
<path fill="none" stroke="#31cef0" d="M1492.23,-431.692C1522.47,-455.843 1563,-449.945 1563,-414 1563,-381.284 1529.43,-373.46 1500.59,-390.526"/>
<polygon fill="#31cef0" stroke="#31cef0" points="1498.47,-387.742 1492.23,-396.308 1502.45,-393.5 1498.47,-387.742"/>
</g>
<!-- execute&#45;method -->
<g id="node18" class="node"><title>execute&#45;method</title>
<ellipse fill="#eeeeee" stroke="#eeeeee" cx="1684" cy="-242" rx="71.1125" ry="18"/>
<text text-anchor="middle" x="1684" y="-238.9" font-family="Verdana" font-size="12.00">execute&#45;method</text>
</g>
<!-- execute&#45;propagate&#45;valid&#45;&gt;execute&#45;method -->
<g id="edge29" class="edge"><title>execute&#45;propagate&#45;valid&#45;&gt;execute&#45;method</title>
<path fill="none" stroke="#31cef0" d="M1684,-395.764C1684,-366.159 1684,-305.433 1684,-270.112"/>
<polygon fill="#31cef0" stroke="#31cef0" points="1687.5,-270.029 1684,-260.029 1680.5,-270.029 1687.5,-270.029"/>
</g>
<!-- extract&#45;plan -->
<g id="node19" class="node"><title>extract&#45;plan</title>
<ellipse fill="#eeeeee" stroke="#eeeeee" cx="773" cy="-586" rx="56.0276" ry="18"/>
<text text-anchor="middle" x="773" y="-582.9" font-family="Verdana" font-size="12.00">extract&#45;plan</text>
</g>
<!-- extract&#45;plan&#45;&gt;new&#45;mark -->
<g id="edge32" class="edge"><title>extract&#45;plan&#45;&gt;new&#45;mark</title>
<path fill="none" stroke="#31cef0" d="M758.051,-568.39C730.833,-538.148 673.097,-473.997 641.6,-439.001"/>
<polygon fill="#31cef0" stroke="#31cef0" points="643.852,-436.27 634.56,-431.178 638.649,-440.953 643.852,-436.27"/>
</g>
<!-- extract&#45;plan&#45;&gt;pplan&#45;add -->
<g id="edge33" class="edge"><title>extract&#45;plan&#45;&gt;pplan&#45;add</title>
<path fill="none" stroke="#31cef0" d="M812.043,-572.91C910.884,-542.304 1170.64,-461.869 1276.31,-429.149"/>
<polygon fill="#31cef0" stroke="#31cef0" points="1277.52,-432.436 1286.04,-426.135 1275.45,-425.749 1277.52,-432.436"/>
</g>
<!-- extract&#45;plan&#45;&gt;any&#45;immediate&#45;upstream&#45;cns&#45;marked -->
<g id="edge34" class="edge"><title>extract&#45;plan&#45;&gt;any&#45;immediate&#45;upstream&#45;cns&#45;marked</title>
<path fill="none" stroke="#31cef0" d="M779.47,-568.078C790.781,-538.497 814.23,-477.168 827.763,-441.774"/>
<polygon fill="#31cef0" stroke="#31cef0" points="831.157,-442.696 831.46,-432.106 824.619,-440.196 831.157,-442.696"/>
</g>
<!-- create&#45;valid&#45;plan -->
<g id="node20" class="node"><title>create&#45;valid&#45;plan</title>
<ellipse fill="#eeeeee" stroke="#eeeeee" cx="480" cy="-414" rx="74.2291" ry="18"/>
<text text-anchor="middle" x="480" y="-410.9" font-family="Verdana" font-size="12.00">create&#45;valid&#45;plan</text>
</g>
<!-- extract&#45;plan&#45;&gt;create&#45;valid&#45;plan -->
<g id="edge35" class="edge"><title>extract&#45;plan&#45;&gt;create&#45;valid&#45;plan</title>
<path fill="none" stroke="#31cef0" d="M746.998,-569.914C694.511,-539.46 575.813,-470.591 515.952,-435.86"/>
<polygon fill="#31cef0" stroke="#31cef0" points="517.622,-432.782 507.216,-430.791 514.109,-438.836 517.622,-432.782"/>
</g>
<!-- execute&#45;plan -->
<g id="node21" class="node"><title>execute&#45;plan</title>
<ellipse fill="#eeeeee" stroke="#eeeeee" cx="1684" cy="-586" rx="59.1446" ry="18"/>
<text text-anchor="middle" x="1684" y="-582.9" font-family="Verdana" font-size="12.00">execute&#45;plan</text>
</g>
<!-- execute&#45;plan&#45;&gt;execute&#45;propagate&#45;valid -->
<g id="edge36" class="edge"><title>execute&#45;plan&#45;&gt;execute&#45;propagate&#45;valid</title>
<path fill="none" stroke="#31cef0" d="M1684,-567.764C1684,-538.159 1684,-477.433 1684,-442.112"/>
<polygon fill="#31cef0" stroke="#31cef0" points="1687.5,-442.029 1684,-432.029 1680.5,-442.029 1687.5,-442.029"/>
</g>
</g>
</svg>
