<?xml version="1.0" encoding="UTF-8" standalone="no"?>
<!DOCTYPE svg PUBLIC "-//W3C//DTD SVG 1.1//EN"
 "http://www.w3.org/Graphics/SVG/1.1/DTD/svg11.dtd">
<!-- Generated by graphviz version 2.36.0 (20140111.2315)
 -->
<!-- Title: G Pages: 1 -->
<svg width="2028pt" height="1139pt"
 viewBox="0.00 0.00 2028.00 1139.20" xmlns="http://www.w3.org/2000/svg" xmlns:xlink="http://www.w3.org/1999/xlink">
<g id="graph0" class="graph" transform="scale(1 1) rotate(0) translate(4 1135.2)">
<title>G</title>
<polygon fill="white" stroke="none" points="-4,4 -4,-1135.2 2024,-1135.2 2024,4 -4,4"/>
<!-- add&#45;constraint -->
<g id="node1" class="node"><title>add&#45;constraint</title>
<ellipse fill="#eeeeee" stroke="#eeeeee" cx="1067" cy="-1052" rx="64.8797" ry="18"/>
<text text-anchor="middle" x="1067" y="-1048.9" font-family="Verdana" font-size="12.00">add&#45;constraint</text>
</g>
<!-- update&#45;method&#45;graph -->
<g id="node2" class="node"><title>update&#45;method&#45;graph</title>
<ellipse fill="#eeeeee" stroke="#eeeeee" cx="814" cy="-857" rx="92.4307" ry="18"/>
<text text-anchor="middle" x="814" y="-853.9" font-family="Verdana" font-size="12.00">update&#45;method&#45;graph</text>
</g>
<!-- add&#45;constraint&#45;&gt;update&#45;method&#45;graph -->
<g id="edge1" class="edge"><title>add&#45;constraint&#45;&gt;update&#45;method&#45;graph</title>
<path fill="none" stroke="#31cef0" d="M1045.86,-1034.88C1000.98,-1000.63 896.009,-920.56 844.125,-880.981"/>
<polygon fill="#31cef0" stroke="#31cef0" points="846.046,-878.044 835.973,-874.762 841.8,-883.61 846.046,-878.044"/>
</g>
<!-- exec&#45;from&#45;roots -->
<g id="node3" class="node"><title>exec&#45;from&#45;roots</title>
<ellipse fill="#eeeeee" stroke="#eeeeee" cx="1127" cy="-663" rx="70.2656" ry="18"/>
<text text-anchor="middle" x="1127" y="-659.9" font-family="Verdana" font-size="12.00">exec&#45;from&#45;roots</text>
</g>
<!-- add&#45;constraint&#45;&gt;exec&#45;from&#45;roots -->
<g id="edge2" class="edge"><title>add&#45;constraint&#45;&gt;exec&#45;from&#45;roots</title>
<path fill="none" stroke="#31cef0" d="M1069.66,-1033.87C1079.1,-972.943 1111.13,-766.367 1122.75,-691.437"/>
<polygon fill="#31cef0" stroke="#31cef0" points="1126.23,-691.788 1124.31,-681.37 1119.32,-690.715 1126.23,-691.788"/>
</g>
<!-- propagate&#45;walk&#45;strength -->
<g id="node5" class="node"><title>propagate&#45;walk&#45;strength</title>
<ellipse fill="#eeeeee" stroke="#eeeeee" cx="935" cy="-663" rx="104.051" ry="18"/>
<text text-anchor="middle" x="935" y="-659.9" font-family="Verdana" font-size="12.00">propagate&#45;walk&#45;strength</text>
</g>
<!-- update&#45;method&#45;graph&#45;&gt;propagate&#45;walk&#45;strength -->
<g id="edge8" class="edge"><title>update&#45;method&#45;graph&#45;&gt;propagate&#45;walk&#45;strength</title>
<path fill="none" stroke="#31cef0" d="M824.738,-838.961C846.04,-805.159 893.752,-729.451 918.855,-689.619"/>
<polygon fill="#31cef0" stroke="#31cef0" points="921.915,-691.327 924.286,-681.001 915.993,-687.595 921.915,-691.327"/>
</g>
<!-- collect&#45;unenforced -->
<g id="node6" class="node"><title>collect&#45;unenforced</title>
<ellipse fill="#eeeeee" stroke="#eeeeee" cx="604" cy="-663" rx="79.1164" ry="18"/>
<text text-anchor="middle" x="604" y="-659.9" font-family="Verdana" font-size="12.00">collect&#45;unenforced</text>
</g>
<!-- update&#45;method&#45;graph&#45;&gt;collect&#45;unenforced -->
<g id="edge9" class="edge"><title>update&#45;method&#45;graph&#45;&gt;collect&#45;unenforced</title>
<path fill="none" stroke="#31cef0" d="M795.731,-839.297C758.249,-805.027 672.569,-726.692 629.585,-687.392"/>
<polygon fill="#31cef0" stroke="#31cef0" points="631.819,-684.692 622.077,-680.528 627.096,-689.858 631.819,-684.692"/>
</g>
<!-- build&#45;mvine -->
<g id="node7" class="node"><title>build&#45;mvine</title>
<ellipse fill="#eeeeee" stroke="#eeeeee" cx="452" cy="-663" rx="54.1832" ry="18"/>
<text text-anchor="middle" x="452" y="-659.9" font-family="Verdana" font-size="12.00">build&#45;mvine</text>
</g>
<!-- update&#45;method&#45;graph&#45;&gt;build&#45;mvine -->
<g id="edge7" class="edge"><title>update&#45;method&#45;graph&#45;&gt;build&#45;mvine</title>
<path fill="none" stroke="#31cef0" d="M783.759,-839.96C717.732,-804.941 560.853,-721.734 489.042,-683.647"/>
<polygon fill="#31cef0" stroke="#31cef0" points="490.375,-680.392 479.9,-678.798 487.095,-686.576 490.375,-680.392"/>
</g>
<!-- new&#45;mark -->
<g id="node8" class="node"><title>new&#45;mark</title>
<ellipse fill="#eeeeee" stroke="#eeeeee" cx="690" cy="-468" rx="47.1009" ry="18"/>
<text text-anchor="middle" x="690" y="-464.9" font-family="Verdana" font-size="12.00">new&#45;mark</text>
</g>
<!-- exec&#45;from&#45;roots&#45;&gt;new&#45;mark -->
<g id="edge26" class="edge"><title>exec&#45;from&#45;roots&#45;&gt;new&#45;mark</title>
<path fill="none" stroke="#31cef0" d="M1093.43,-647.176C1013.76,-611.989 813.593,-523.584 728.858,-486.162"/>
<polygon fill="#31cef0" stroke="#31cef0" points="730.15,-482.906 719.589,-482.068 727.322,-489.31 730.15,-482.906"/>
</g>
<!-- pplan&#45;add -->
<g id="node14" class="node"><title>pplan&#45;add</title>
<ellipse fill="#eeeeee" stroke="#eeeeee" cx="1127" cy="-468" rx="48.0237" ry="18"/>
<text text-anchor="middle" x="1127" y="-464.9" font-family="Verdana" font-size="12.00">pplan&#45;add</text>
</g>
<!-- exec&#45;from&#45;roots&#45;&gt;pplan&#45;add -->
<g id="edge27" class="edge"><title>exec&#45;from&#45;roots&#45;&gt;pplan&#45;add</title>
<path fill="none" stroke="#31cef0" d="M1127,-644.873C1127,-611.323 1127,-536.707 1127,-496.287"/>
<polygon fill="#31cef0" stroke="#31cef0" points="1130.5,-496.089 1127,-486.089 1123.5,-496.089 1130.5,-496.089"/>
</g>
<!-- any&#45;immediate&#45;upstream&#45;cns&#45;marked -->
<g id="node15" class="node"><title>any&#45;immediate&#45;upstream&#45;cns&#45;marked</title>
<ellipse fill="#eeeeee" stroke="#eeeeee" cx="908" cy="-468" rx="152.498" ry="18"/>
<text text-anchor="middle" x="908" y="-464.9" font-family="Verdana" font-size="12.00">any&#45;immediate&#45;upstream&#45;cns&#45;marked</text>
</g>
<!-- exec&#45;from&#45;roots&#45;&gt;any&#45;immediate&#45;upstream&#45;cns&#45;marked -->
<g id="edge28" class="edge"><title>exec&#45;from&#45;roots&#45;&gt;any&#45;immediate&#45;upstream&#45;cns&#45;marked</title>
<path fill="none" stroke="#31cef0" d="M1108.33,-645.545C1069.49,-611.319 979.887,-532.353 934.857,-492.669"/>
<polygon fill="#31cef0" stroke="#31cef0" points="937.065,-489.949 927.249,-485.964 932.437,-495.201 937.065,-489.949"/>
</g>
<!-- exec&#45;from&#45;cycle -->
<g id="node19" class="node"><title>exec&#45;from&#45;cycle</title>
<ellipse fill="#eeeeee" stroke="#eeeeee" cx="1709" cy="-468" rx="69.3418" ry="18"/>
<text text-anchor="middle" x="1709" y="-464.9" font-family="Verdana" font-size="12.00">exec&#45;from&#45;cycle</text>
</g>
<!-- exec&#45;from&#45;roots&#45;&gt;exec&#45;from&#45;cycle -->
<g id="edge29" class="edge"><title>exec&#45;from&#45;roots&#45;&gt;exec&#45;from&#45;cycle</title>
<path fill="none" stroke="#31cef0" d="M1168.39,-648.275C1272.48,-613.757 1544.91,-523.415 1658.32,-485.807"/>
<polygon fill="#31cef0" stroke="#31cef0" points="1659.43,-489.125 1667.82,-482.655 1657.23,-482.481 1659.43,-489.125"/>
</g>
<!-- execute&#45;propagate&#45;valid -->
<g id="node20" class="node"><title>execute&#45;propagate&#45;valid</title>
<ellipse fill="#eeeeee" stroke="#eeeeee" cx="1917" cy="-468" rx="102.206" ry="18"/>
<text text-anchor="middle" x="1917" y="-464.9" font-family="Verdana" font-size="12.00">execute&#45;propagate&#45;valid</text>
</g>
<!-- exec&#45;from&#45;roots&#45;&gt;execute&#45;propagate&#45;valid -->
<g id="edge30" class="edge"><title>exec&#45;from&#45;roots&#45;&gt;execute&#45;propagate&#45;valid</title>
<path fill="none" stroke="#31cef0" d="M1175.82,-650.073C1311.69,-616.88 1694.41,-523.38 1849.98,-485.373"/>
<polygon fill="#31cef0" stroke="#31cef0" points="1851.01,-488.724 1859.9,-482.951 1849.35,-481.924 1851.01,-488.724"/>
</g>
<!-- remove&#45;constraint -->
<g id="node4" class="node"><title>remove&#45;constraint</title>
<ellipse fill="#eeeeee" stroke="#eeeeee" cx="844" cy="-1052" rx="78.1943" ry="18"/>
<text text-anchor="middle" x="844" y="-1048.9" font-family="Verdana" font-size="12.00">remove&#45;constraint</text>
</g>
<!-- remove&#45;constraint&#45;&gt;update&#45;method&#45;graph -->
<g id="edge5" class="edge"><title>remove&#45;constraint&#45;&gt;update&#45;method&#45;graph</title>
<path fill="none" stroke="#31cef0" d="M841.338,-1033.87C836.112,-1000.25 824.475,-925.389 818.201,-885.029"/>
<polygon fill="#31cef0" stroke="#31cef0" points="821.651,-884.433 816.656,-875.089 814.734,-885.508 821.651,-884.433"/>
</g>
<!-- remove&#45;constraint&#45;&gt;exec&#45;from&#45;roots -->
<g id="edge6" class="edge"><title>remove&#45;constraint&#45;&gt;exec&#45;from&#45;roots</title>
<path fill="none" stroke="#31cef0" d="M856.342,-1034.12C901.119,-972.891 1055.18,-762.213 1108.59,-689.172"/>
<polygon fill="#31cef0" stroke="#31cef0" points="1111.52,-691.105 1114.59,-680.967 1105.86,-686.973 1111.52,-691.105"/>
</g>
<!-- remove&#45;constraint&#45;&gt;propagate&#45;walk&#45;strength -->
<g id="edge3" class="edge"><title>remove&#45;constraint&#45;&gt;propagate&#45;walk&#45;strength</title>
<path fill="none" stroke="#31cef0" d="M852.769,-1034.07C868.25,-1003.31 900.182,-935.822 915,-875 930.717,-810.487 934.214,-732.081 934.909,-691.425"/>
<polygon fill="#31cef0" stroke="#31cef0" points="938.411,-691.277 935.037,-681.234 931.412,-691.189 938.411,-691.277"/>
</g>
<!-- remove&#45;constraint&#45;&gt;collect&#45;unenforced -->
<g id="edge4" class="edge"><title>remove&#45;constraint&#45;&gt;collect&#45;unenforced</title>
<path fill="none" stroke="#31cef0" d="M829.868,-1034.21C804.533,-1003.69 750.443,-936.551 712,-875 672.125,-811.156 634.094,-730.823 615.63,-690.16"/>
<polygon fill="#31cef0" stroke="#31cef0" points="618.775,-688.619 611.472,-680.942 612.394,-691.497 618.775,-688.619"/>
</g>
<!-- propagate&#45;walk&#45;strength&#45;&gt;new&#45;mark -->
<g id="edge18" class="edge"><title>propagate&#45;walk&#45;strength&#45;&gt;new&#45;mark</title>
<path fill="none" stroke="#31cef0" d="M913.686,-645.21C869.335,-610.272 767.144,-529.771 717.741,-490.853"/>
<polygon fill="#31cef0" stroke="#31cef0" points="719.74,-487.972 709.718,-484.533 715.408,-493.471 719.74,-487.972"/>
</g>
<!-- propagate&#45;walk&#45;strength&#45;&gt;pplan&#45;add -->
<g id="edge19" class="edge"><title>propagate&#45;walk&#45;strength&#45;&gt;pplan&#45;add</title>
<path fill="none" stroke="#31cef0" d="M951.703,-645.21C986.002,-610.733 1064.44,-531.886 1103.71,-492.414"/>
<polygon fill="#31cef0" stroke="#31cef0" points="1106.44,-494.627 1111.01,-485.07 1101.48,-489.691 1106.44,-494.627"/>
</g>
<!-- propagate&#45;walk&#45;strength&#45;&gt;any&#45;immediate&#45;upstream&#45;cns&#45;marked -->
<g id="edge20" class="edge"><title>propagate&#45;walk&#45;strength&#45;&gt;any&#45;immediate&#45;upstream&#45;cns&#45;marked</title>
<path fill="none" stroke="#31cef0" d="M932.604,-644.873C927.901,-611.252 917.427,-536.389 911.781,-496.029"/>
<polygon fill="#31cef0" stroke="#31cef0" points="915.243,-495.508 910.391,-486.089 908.31,-496.478 915.243,-495.508"/>
</g>
<!-- compute&#45;walkabout&#45;strengths -->
<g id="node16" class="node"><title>compute&#45;walkabout&#45;strengths</title>
<ellipse fill="#eeeeee" stroke="#eeeeee" cx="1498" cy="-468" rx="123.599" ry="18"/>
<text text-anchor="middle" x="1498" y="-464.9" font-family="Verdana" font-size="12.00">compute&#45;walkabout&#45;strengths</text>
</g>
<!-- propagate&#45;walk&#45;strength&#45;&gt;compute&#45;walkabout&#45;strengths -->
<g id="edge21" class="edge"><title>propagate&#45;walk&#45;strength&#45;&gt;compute&#45;walkabout&#45;strengths</title>
<path fill="none" stroke="#31cef0" d="M979.648,-646.694C1081.39,-611.816 1330.26,-526.503 1442.04,-488.185"/>
<polygon fill="#31cef0" stroke="#31cef0" points="1443.45,-491.4 1451.78,-484.846 1441.18,-484.778 1443.45,-491.4"/>
</g>
<!-- collect&#45;unenforced&#45;&gt;new&#45;mark -->
<g id="edge23" class="edge"><title>collect&#45;unenforced&#45;&gt;new&#45;mark</title>
<path fill="none" stroke="#31cef0" d="M611.632,-644.873C626.747,-610.952 660.568,-535.05 678.434,-494.957"/>
<polygon fill="#31cef0" stroke="#31cef0" points="681.635,-496.372 682.508,-485.814 675.241,-493.523 681.635,-496.372"/>
</g>
<!-- collect&#45;unenforced&#45;mark -->
<g id="node18" class="node"><title>collect&#45;unenforced&#45;mark</title>
<ellipse fill="#eeeeee" stroke="#eeeeee" cx="339" cy="-468" rx="100.435" ry="18"/>
<text text-anchor="middle" x="339" y="-464.9" font-family="Verdana" font-size="12.00">collect&#45;unenforced&#45;mark</text>
</g>
<!-- collect&#45;unenforced&#45;&gt;collect&#45;unenforced&#45;mark -->
<g id="edge24" class="edge"><title>collect&#45;unenforced&#45;&gt;collect&#45;unenforced&#45;mark</title>
<path fill="none" stroke="#31cef0" d="M581.406,-645.545C534.002,-611.02 424.087,-530.969 370.082,-491.637"/>
<polygon fill="#31cef0" stroke="#31cef0" points="372.057,-488.746 361.913,-485.688 367.936,-494.404 372.057,-488.746"/>
</g>
<!-- build&#45;mvine&#45;&gt;new&#45;mark -->
<g id="edge10" class="edge"><title>build&#45;mvine&#45;&gt;new&#45;mark</title>
<path fill="none" stroke="#31cef0" d="M471.882,-645.877C514.444,-611.363 614.425,-530.286 662.815,-491.045"/>
<polygon fill="#31cef0" stroke="#31cef0" points="665.111,-493.689 670.674,-484.672 660.702,-488.252 665.111,-493.689"/>
</g>
<!-- mvine&#45;enforce&#45;cn -->
<g id="node9" class="node"><title>mvine&#45;enforce&#45;cn</title>
<ellipse fill="#eeeeee" stroke="#eeeeee" cx="145" cy="-468" rx="75.1525" ry="18"/>
<text text-anchor="middle" x="145" y="-464.9" font-family="Verdana" font-size="12.00">mvine&#45;enforce&#45;cn</text>
</g>
<!-- build&#45;mvine&#45;&gt;mvine&#45;enforce&#45;cn -->
<g id="edge11" class="edge"><title>build&#45;mvine&#45;&gt;mvine&#45;enforce&#45;cn</title>
<path fill="none" stroke="#31cef0" d="M427.91,-646.856C373.75,-612.807 242.213,-530.115 179.441,-490.652"/>
<polygon fill="#31cef0" stroke="#31cef0" points="181.025,-487.513 170.696,-485.154 177.299,-493.44 181.025,-487.513"/>
</g>
<!-- mvine&#45;grow -->
<g id="node10" class="node"><title>mvine&#45;grow</title>
<ellipse fill="#eeeeee" stroke="#eeeeee" cx="218" cy="-274" rx="54.2578" ry="18"/>
<text text-anchor="middle" x="218" y="-270.9" font-family="Verdana" font-size="12.00">mvine&#45;grow</text>
</g>
<!-- mvine&#45;enforce&#45;cn&#45;&gt;mvine&#45;grow -->
<g id="edge17" class="edge"><title>mvine&#45;enforce&#45;cn&#45;&gt;mvine&#45;grow</title>
<path fill="none" stroke="#31cef0" d="M147.431,-449.961C156.922,-416.217 185.386,-340.708 203.399,-300.823"/>
<polygon fill="#31cef0" stroke="#31cef0" points="206.585,-302.27 207.625,-291.726 200.237,-299.321 206.585,-302.27"/>
</g>
<!-- possible&#45;method -->
<g id="node13" class="node"><title>possible&#45;method</title>
<ellipse fill="#eeeeee" stroke="#eeeeee" cx="73" cy="-274" rx="72.8835" ry="18"/>
<text text-anchor="middle" x="73" y="-270.9" font-family="Verdana" font-size="12.00">possible&#45;method</text>
</g>
<!-- mvine&#45;enforce&#45;cn&#45;&gt;possible&#45;method -->
<g id="edge16" class="edge"><title>mvine&#45;enforce&#45;cn&#45;&gt;possible&#45;method</title>
<path fill="none" stroke="#31cef0" d="M138.61,-449.961C126.015,-416.372 97.902,-341.405 82.8917,-301.378"/>
<polygon fill="#31cef0" stroke="#31cef0" points="86.1637,-300.135 79.3752,-292.001 79.6093,-302.593 86.1637,-300.135"/>
</g>
<!-- mvine&#45;grow&#45;&gt;mvine&#45;enforce&#45;cn -->
<g id="edge14" class="edge"><title>mvine&#45;grow&#45;&gt;mvine&#45;enforce&#45;cn</title>
<path fill="none" stroke="#31cef0" d="M215.579,-292.001C206.127,-325.629 177.786,-400.841 159.758,-440.831"/>
<polygon fill="#31cef0" stroke="#31cef0" points="156.556,-439.417 155.525,-449.961 162.906,-442.361 156.556,-439.417"/>
</g>
<!-- mvine&#45;grow&#45;&gt;mvine&#45;grow -->
<g id="edge12" class="edge"><title>mvine&#45;grow&#45;&gt;mvine&#45;grow</title>
<path fill="none" stroke="#31cef0" d="M229.693,-291.99C254.872,-321.487 290,-315.49 290,-274 290,-236.399 261.15,-227.949 237,-248.65"/>
<polygon fill="#31cef0" stroke="#31cef0" points="234.254,-246.447 229.693,-256.01 239.222,-251.379 234.254,-246.447"/>
</g>
<!-- mvine&#45;revoke&#45;cn -->
<g id="node11" class="node"><title>mvine&#45;revoke&#45;cn</title>
<ellipse fill="#eeeeee" stroke="#eeeeee" cx="218" cy="-80" rx="72.4586" ry="18"/>
<text text-anchor="middle" x="218" y="-76.9" font-family="Verdana" font-size="12.00">mvine&#45;revoke&#45;cn</text>
</g>
<!-- mvine&#45;grow&#45;&gt;mvine&#45;revoke&#45;cn -->
<g id="edge13" class="edge"><title>mvine&#45;grow&#45;&gt;mvine&#45;revoke&#45;cn</title>
<path fill="none" stroke="#31cef0" d="M218,-255.961C218,-222.586 218,-148.357 218,-108.145"/>
<polygon fill="#31cef0" stroke="#31cef0" points="221.5,-108 218,-98.0005 214.5,-108.001 221.5,-108"/>
</g>
<!-- mvine&#45;rekove&#45;cn -->
<g id="node12" class="node"><title>mvine&#45;rekove&#45;cn</title>
<ellipse fill="#eeeeee" stroke="#eeeeee" cx="1284" cy="-468" rx="72.4586" ry="18"/>
<text text-anchor="middle" x="1284" y="-464.9" font-family="Verdana" font-size="12.00">mvine&#45;rekove&#45;cn</text>
</g>
<!-- mvine&#45;rekove&#45;cn&#45;&gt;mvine&#45;grow -->
<g id="edge15" class="edge"><title>mvine&#45;rekove&#45;cn&#45;&gt;mvine&#45;grow</title>
<path fill="none" stroke="#31cef0" d="M1230.67,-455.715C1221.13,-453.762 1211.28,-451.787 1202,-450 850.564,-382.334 426.661,-310.102 275.204,-284.589"/>
<polygon fill="#31cef0" stroke="#31cef0" points="275.641,-281.113 265.199,-282.904 274.479,-288.016 275.641,-281.113"/>
</g>
<!-- pplan&#45;add&#45;&gt;pplan&#45;add -->
<g id="edge33" class="edge"><title>pplan&#45;add&#45;&gt;pplan&#45;add</title>
<path fill="none" stroke="#31cef0" d="M1137.4,-485.584C1160.5,-515.541 1193,-509.68 1193,-468 1193,-430.228 1166.31,-421.873 1144.11,-442.935"/>
<polygon fill="#31cef0" stroke="#31cef0" points="1141.47,-440.635 1137.4,-450.416 1146.69,-445.309 1141.47,-440.635"/>
</g>
<!-- max&#45;out -->
<g id="node17" class="node"><title>max&#45;out</title>
<ellipse fill="#eeeeee" stroke="#eeeeee" cx="1498" cy="-274" rx="41.2918" ry="18"/>
<text text-anchor="middle" x="1498" y="-270.9" font-family="Verdana" font-size="12.00">max&#45;out</text>
</g>
<!-- compute&#45;walkabout&#45;strengths&#45;&gt;max&#45;out -->
<g id="edge22" class="edge"><title>compute&#45;walkabout&#45;strengths&#45;&gt;max&#45;out</title>
<path fill="none" stroke="#31cef0" d="M1498,-449.961C1498,-416.586 1498,-342.357 1498,-302.145"/>
<polygon fill="#31cef0" stroke="#31cef0" points="1501.5,-302 1498,-292.001 1494.5,-302.001 1501.5,-302"/>
</g>
<!-- collect&#45;unenforced&#45;mark&#45;&gt;collect&#45;unenforced&#45;mark -->
<g id="edge25" class="edge"><title>collect&#45;unenforced&#45;mark&#45;&gt;collect&#45;unenforced&#45;mark</title>
<path fill="none" stroke="#31cef0" d="M357.881,-485.787C399.166,-515.514 457,-509.585 457,-468 457,-429.177 406.592,-421.431 366.303,-444.762"/>
<polygon fill="#31cef0" stroke="#31cef0" points="364.375,-441.841 357.881,-450.213 368.178,-447.718 364.375,-441.841"/>
</g>
<!-- exec&#45;from&#45;cycle&#45;&gt;exec&#45;from&#45;cycle -->
<g id="edge32" class="edge"><title>exec&#45;from&#45;cycle&#45;&gt;exec&#45;from&#45;cycle</title>
<path fill="none" stroke="#31cef0" d="M1723.13,-485.99C1753.55,-515.487 1796,-509.49 1796,-468 1796,-429.913 1760.23,-421.736 1730.83,-443.468"/>
<polygon fill="#31cef0" stroke="#31cef0" points="1728.48,-440.868 1723.13,-450.01 1733.02,-446.202 1728.48,-440.868"/>
</g>
<!-- execute&#45;method -->
<g id="node21" class="node"><title>execute&#45;method</title>
<ellipse fill="#eeeeee" stroke="#eeeeee" cx="1917" cy="-274" rx="71.1125" ry="18"/>
<text text-anchor="middle" x="1917" y="-270.9" font-family="Verdana" font-size="12.00">execute&#45;method</text>
</g>
<!-- execute&#45;propagate&#45;valid&#45;&gt;execute&#45;method -->
<g id="edge31" class="edge"><title>execute&#45;propagate&#45;valid&#45;&gt;execute&#45;method</title>
<path fill="none" stroke="#31cef0" d="M1917,-449.961C1917,-416.586 1917,-342.357 1917,-302.145"/>
<polygon fill="#31cef0" stroke="#31cef0" points="1920.5,-302 1917,-292.001 1913.5,-302.001 1920.5,-302"/>
</g>
<!-- extract&#45;plan -->
<g id="node22" class="node"><title>extract&#45;plan</title>
<ellipse fill="#eeeeee" stroke="#eeeeee" cx="757" cy="-663" rx="56.0276" ry="18"/>
<text text-anchor="middle" x="757" y="-659.9" font-family="Verdana" font-size="12.00">extract&#45;plan</text>
</g>
<!-- extract&#45;plan&#45;&gt;new&#45;mark -->
<g id="edge34" class="edge"><title>extract&#45;plan&#45;&gt;new&#45;mark</title>
<path fill="none" stroke="#31cef0" d="M751.054,-644.873C739.358,-611.18 713.283,-536.07 699.294,-495.771"/>
<polygon fill="#31cef0" stroke="#31cef0" points="702.518,-494.388 695.932,-486.089 695.906,-496.684 702.518,-494.388"/>
</g>
<!-- extract&#45;plan&#45;&gt;pplan&#45;add -->
<g id="edge35" class="edge"><title>extract&#45;plan&#45;&gt;pplan&#45;add</title>
<path fill="none" stroke="#31cef0" d="M785.114,-647.335C851.421,-612.748 1017.51,-526.113 1091.02,-487.766"/>
<polygon fill="#31cef0" stroke="#31cef0" points="1092.68,-490.847 1099.93,-483.119 1089.45,-484.641 1092.68,-490.847"/>
</g>
<!-- extract&#45;plan&#45;&gt;any&#45;immediate&#45;upstream&#45;cns&#45;marked -->
<g id="edge36" class="edge"><title>extract&#45;plan&#45;&gt;any&#45;immediate&#45;upstream&#45;cns&#45;marked</title>
<path fill="none" stroke="#31cef0" d="M770.136,-645.21C796.73,-611.219 857.066,-534.101 888.357,-494.107"/>
<polygon fill="#31cef0" stroke="#31cef0" points="891.165,-496.198 894.57,-486.165 885.652,-491.884 891.165,-496.198"/>
</g>
<!-- create&#45;valid&#45;plan -->
<g id="node23" class="node"><title>create&#45;valid&#45;plan</title>
<ellipse fill="#eeeeee" stroke="#eeeeee" cx="550" cy="-468" rx="74.2291" ry="18"/>
<text text-anchor="middle" x="550" y="-464.9" font-family="Verdana" font-size="12.00">create&#45;valid&#45;plan</text>
</g>
<!-- extract&#45;plan&#45;&gt;create&#45;valid&#45;plan -->
<g id="edge37" class="edge"><title>extract&#45;plan&#45;&gt;create&#45;valid&#45;plan</title>
<path fill="none" stroke="#31cef0" d="M739.707,-645.877C703.117,-611.762 617.732,-532.152 575.12,-492.421"/>
<polygon fill="#31cef0" stroke="#31cef0" points="577.383,-489.746 567.682,-485.486 572.61,-494.866 577.383,-489.746"/>
</g>
<!-- execute&#45;plan -->
<g id="node24" class="node"><title>execute&#45;plan</title>
<ellipse fill="#eeeeee" stroke="#eeeeee" cx="1917" cy="-663" rx="59.1446" ry="18"/>
<text text-anchor="middle" x="1917" y="-659.9" font-family="Verdana" font-size="12.00">execute&#45;plan</text>
</g>
<!-- execute&#45;plan&#45;&gt;execute&#45;propagate&#45;valid -->
<g id="edge38" class="edge"><title>execute&#45;plan&#45;&gt;execute&#45;propagate&#45;valid</title>
<path fill="none" stroke="#31cef0" d="M1917,-644.873C1917,-611.323 1917,-536.707 1917,-496.287"/>
<polygon fill="#31cef0" stroke="#31cef0" points="1920.5,-496.089 1917,-486.089 1913.5,-496.089 1920.5,-496.089"/>
</g>
</g>
</svg>
